<?xml version="1.0" standalone="no"?>
<!DOCTYPE svg PUBLIC "-//W3C//DTD SVG 1.1//EN" "http://www.w3.org/Graphics/SVG/1.1/DTD/svg11.dtd">
<!--Generator: Xara Designer (www.xara.com), SVG filter version: 3.0.2.3-->
<svg stroke-width="0.501" stroke-linejoin="bevel" fill-rule="evenodd" xmlns:xlink="http://www.w3.org/1999/xlink" xmlns="http://www.w3.org/2000/svg" version="1.1" overflow="visible" width="180pt" height="270pt" viewBox="0 0 180 270">
 <defs>
  <marker id="DefaultArrow2" markerUnits="strokeWidth" viewBox="0 0 1 1" markerWidth="1" markerHeight="1" overflow="visible" orient="auto">
   <!-- REF_ARROW_STRAIGHT (-2) -->
   <g transform="scale(0.0092592592)">
    <!-- 1/108 -->
    <path d="M -9 54 L -9 -54 L 117 0 z"/>
   </g>
  </marker>
  <marker id="DefaultArrow3" markerUnits="strokeWidth" viewBox="0 0 1 1" markerWidth="1" markerHeight="1" overflow="visible" orient="auto">
   <!-- REF_ARROW_ANGLED -->
   <g transform="scale(0.0092592592)">
    <path d="M -27 54 L -9 0 L -27 -54 L 135 0 z"/>
   </g>
  </marker>
  <marker id="DefaultArrow4" markerUnits="strokeWidth" viewBox="0 0 1 1" markerWidth="1" markerHeight="1" overflow="visible" orient="auto">
   <!-- REF_ARROW_ROUNDED -->
   <g transform="scale(0.0092592592)">
    <path d="M -9,0 L -9,-45 C -9,-51.708 2.808,-56.580 9,-54 L 117,-9 C 120.916,-7.369 126.000,-4.242 126,0 C 126,4.242 120.916,7.369 117,9 L 9,54 C 2.808,56.580 -9,51.708 -9,45 z"/>
   </g>
  </marker>
  <marker id="DefaultArrow5" markerUnits="strokeWidth" viewBox="0 0 1 1" markerWidth="1" markerHeight="1" overflow="visible" orient="auto">
   <!-- REF_ARROW_SPOT -->
   <g transform="scale(0.0092592592)">
    <path d="M -54, 0 C -54,29.807 -29.807,54 0,54 C 29.807,54 54,29.807 54,0 C 54,-29.807 29.807,-54 0,-54 C -29.807,-54 -54,-29.807 -54,0 z"/>
   </g>
  </marker>
  <marker id="DefaultArrow6" markerUnits="strokeWidth" viewBox="0 0 1 1" markerWidth="1" markerHeight="1" overflow="visible" orient="auto">
   <!-- REF_ARROW_DIAMOND -->
   <g transform="scale(0.0092592592)">
    <path d="M -63,0 L 0,63 L 63,0 L 0,-63 z"/>
   </g>
  </marker>
  <marker id="DefaultArrow7" markerUnits="strokeWidth" viewBox="0 0 1 1" markerWidth="1" markerHeight="1" overflow="visible" orient="auto">
   <!-- REF_ARROW_FEATHER -->
   <g transform="scale(0.0092592592)">
    <path d="M 18,-54 L 108,-54 L 63,0 L 108,54 L 18, 54 L -36,0 z"/>
   </g>
  </marker>
  <marker id="DefaultArrow8" markerUnits="strokeWidth" viewBox="0 0 1 1" markerWidth="1" markerHeight="1" overflow="visible" orient="auto">
   <!-- REF_ARROW_FEATHER2 -->
   <g transform="scale(0.0092592592)">
    <path d="M -36,0 L 18,-54 L 54,-54 L 18,-18 L 27,-18 L 63,-54 L 99,-54 L 63,-18 L 72,-18 L 108,-54 L 144,-54 L 90,0 L 144,54 L 108,54 L 72,18 L 63,18 L 99,54 L 63,54 L 27,18 L 18,18 L 54,54 L 18,54 z"/>
   </g>
  </marker>
  <marker id="DefaultArrow9" markerUnits="strokeWidth" viewBox="0 0 1 1" markerWidth="1" markerHeight="1" overflow="visible" orient="auto">
   <!-- REF_ARROW_HOLLOWDIAMOND -->
   <g transform="scale(0.0092592592)">
    <path d="M 0,45 L -45,0 L 0, -45 L 45, 0 z M 0, 63 L-63, 0 L 0, -63 L 63, 0 z"/>
   </g>
  </marker>
  <filter id="StainedFilter">
   <feBlend mode="multiply" in2="BackgroundImage" in="SourceGraphic" result="blend"/>
   <feComposite in="blend" in2="SourceAlpha" operator="in" result="comp"/>
  </filter>
  <filter id="BleachFilter">
   <feBlend mode="screen" in2="BackgroundImage" in="SourceGraphic" result="blend"/>
   <feComposite in="blend" in2="SourceAlpha" operator="in" result="comp"/>
  </filter>
  <filter id="InvertTransparencyBitmapFilter">
   <feComponentTransfer>
    <feFuncR type="gamma" amplitude="1.055" exponent=".416666666" offset="-0.055"/>
    <feFuncG type="gamma" amplitude="1.055" exponent=".416666666" offset="-0.055"/>
    <feFuncB type="gamma" amplitude="1.055" exponent=".416666666" offset="-0.055"/>
   </feComponentTransfer>
   <feComponentTransfer>
    <feFuncR type="linear" slope="-1" intercept="1"/>
    <feFuncG type="linear" slope="-1" intercept="1"/>
    <feFuncB type="linear" slope="-1" intercept="1"/>
    <feFuncA type="linear" slope="1" intercept="0"/>
   </feComponentTransfer>
   <feComponentTransfer>
    <feFuncR type="gamma" amplitude="1" exponent="2.4" offset="0"/>
    <feFuncG type="gamma" amplitude="1" exponent="2.4" offset="0"/>
    <feFuncB type="gamma" amplitude="1" exponent="2.4" offset="0"/>
   </feComponentTransfer>
  </filter>
 </defs>
 <g id="Document" fill="none" stroke="black" font-family="Times New Roman" font-size="16" transform="scale(1 -1)">
  <g id="Spread" transform="translate(0 -270)">
   <g id="Layer 1">
    <g id="Group" stroke-linecap="round" stroke="none">
     <path d="M 21.17,158.965 C 34.346,172.14 55.732,172.14 68.908,158.965 C 82.083,145.789 82.083,124.403 68.908,111.227 C 55.732,98.052 34.346,98.052 21.17,111.227 C 7.995,124.403 7.995,145.789 21.17,158.965 Z" stroke-linejoin="round" stroke-width="0" marker-start="none" marker-end="none" stroke-miterlimit="79.8403193612775"/>
     <path d="M 111.093,158.966 C 124.269,172.141 145.655,172.141 158.831,158.966 C 172.006,145.79 172.006,124.404 158.831,111.228 C 145.655,98.053 124.269,98.053 111.093,111.228 C 97.918,124.404 97.918,145.79 111.093,158.966 Z" stroke-linejoin="round" stroke-width="0" marker-start="none" marker-end="none" stroke-miterlimit="79.8403193612775"/>
     <path d="M 0.039,180.096 L 0.039,90.096 L 90.039,90.096 L 90.039,180.096 L 0.039,180.096 Z" stroke-width="0" stroke-linejoin="miter" marker-start="none" marker-end="none" stroke-miterlimit="79.8403193612775"/>
     <path d="M 89.962,180.097 L 89.962,90.097 L 179.962,90.097 L 179.962,180.097 L 89.962,180.097 Z" stroke-width="0" stroke-linejoin="miter" marker-start="none" marker-end="none" stroke-miterlimit="79.8403193612775"/>
     <path d="M 21.169,248.92 C 34.345,262.095 55.731,262.095 68.907,248.92 C 82.082,235.744 82.082,214.358 68.907,201.182 C 55.731,188.007 34.345,188.007 21.169,201.182 C 7.994,214.358 7.994,235.744 21.169,248.92 Z" stroke-linejoin="round" stroke-width="0" marker-start="none" marker-end="none" stroke-miterlimit="79.8403193612775"/>
     <path d="M 24.48,235.446 C 30.26,246.884 44.236,251.477 55.674,245.696 C 67.112,239.916 71.705,225.94 65.924,214.502 C 60.144,203.064 46.168,198.471 34.73,204.252 C 23.292,210.032 18.699,224.008 24.48,235.446 Z" stroke-linejoin="round" stroke-width="0" fill="#6acff6" marker-start="none" marker-end="none" stroke-miterlimit="79.8403193612775"/>
     <path d="M 43.063,201.85 C 44.104,202.116 45.14,202.403 46.169,202.709 C 48.198,206.154 50.01,209.693 51.594,213.337 C 50.068,214.788 48.579,216.265 47.131,217.769 C 43.108,218.844 39.104,220.129 35.122,221.635 C 33.446,218.509 32.04,215.344 30.899,212.14 C 32.628,209.106 34.593,206.171 36.783,203.333 C 36.098,203.601 35.42,203.903 34.752,204.242 C 33.155,206.338 31.724,208.507 30.416,210.728 C 30.098,209.766 29.803,208.801 29.533,207.833 C 29.219,208.12 28.914,208.416 28.615,208.718 C 28.938,209.826 29.287,210.93 29.668,212.03 C 28.703,213.748 27.813,215.498 26.999,217.282 C 26.948,214.802 27.131,212.346 27.528,209.909 C 27.035,210.491 26.572,211.091 26.14,211.712 C 25.839,214.323 25.777,216.955 25.981,219.608 C 25.02,221.922 24.184,224.293 23.471,226.714 C 23.017,226.941 22.559,227.169 22.106,227.401 C 22.147,227.798 22.199,228.192 22.26,228.586 C 22.526,228.449 22.793,228.313 23.059,228.179 C 22.883,228.828 22.717,229.48 22.559,230.136 C 22.734,230.897 22.949,231.657 23.205,232.411 C 23.548,230.75 23.952,229.115 24.414,227.503 C 25.288,227.074 26.166,226.656 27.041,226.25 C 27.922,229.872 29.313,233.536 31.266,237.243 C 29.014,236.807 26.775,236.256 24.555,235.593 C 24.799,236.071 25.06,236.537 25.334,236.99 C 27.151,237.502 28.976,237.938 30.812,238.301 C 30.136,239.338 29.475,240.387 28.828,241.442 C 29.099,241.714 29.379,241.977 29.664,242.231 C 30.416,240.995 31.192,239.772 31.985,238.563 C 33.288,240.883 34.811,243.222 36.57,245.58 C 36.147,245.712 35.721,245.842 35.291,245.967 C 35.82,246.218 36.359,246.446 36.904,246.654 C 37.034,246.614 37.163,246.574 37.291,246.531 C 37.387,246.655 37.481,246.778 37.578,246.901 C 38.2,247.117 38.832,247.307 39.471,247.47 C 39.114,247.031 38.765,246.593 38.426,246.157 C 42.008,244.934 45.384,243.434 48.569,241.681 C 50.159,243.34 51.836,244.986 53.601,246.621 C 53.984,246.472 54.363,246.313 54.741,246.142 C 52.93,244.478 51.21,242.8 49.581,241.11 C 50.728,240.451 51.85,239.759 52.947,239.034 C 54.788,238.801 56.642,238.497 58.502,238.118 C 58.747,239.92 58.939,241.742 59.084,243.589 C 59.446,243.319 59.8,243.04 60.142,242.751 C 60.003,241.113 59.823,239.49 59.606,237.886 C 61.533,237.464 63.471,236.965 65.419,236.386 C 65.676,235.929 65.92,235.463 66.145,234.991 C 63.898,235.691 61.665,236.281 59.449,236.769 C 59.333,235.994 59.209,235.224 59.077,234.459 C 62.43,231.646 65.533,228.505 68.422,225.083 C 68.424,224.52 68.408,223.953 68.37,223.388 C 65.432,226.972 62.271,230.252 58.848,233.18 C 57.816,227.65 56.316,222.33 54.38,217.207 C 58.34,216.385 62.319,215.759 66.315,215.313 C 66.191,215.041 66.061,214.769 65.925,214.502 C 65.88,214.413 65.835,214.326 65.79,214.238 C 61.834,214.693 57.894,215.322 53.971,216.143 C 53.637,215.294 53.294,214.451 52.938,213.614 C 55.056,211.623 57.251,209.683 59.523,207.795 C 60.359,208.174 61.192,208.566 62.024,208.962 C 61.117,208.008 60.137,207.144 59.1,206.371 C 55.204,204.63 51.238,203.088 47.169,201.838 C 45.813,201.722 44.438,201.724 43.063,201.85 Z M 58.381,207.282 C 56.347,208.986 54.375,210.731 52.464,212.515 C 51.064,209.334 49.491,206.23 47.756,203.2 C 51.362,204.351 54.897,205.736 58.381,207.282 Z M 52.856,216.382 C 51.646,216.645 50.438,216.926 49.23,217.228 C 50.159,216.288 51.105,215.359 52.066,214.442 C 52.336,215.085 52.599,215.73 52.856,216.382 Z M 57.857,234.01 C 56.15,235.411 54.382,236.728 52.546,237.951 C 50.706,238.176 48.882,238.33 47.064,238.408 C 44.134,235.148 41.532,231.837 39.261,228.479 C 41.915,225.133 44.733,221.898 47.725,218.775 C 49.565,218.287 51.416,217.844 53.267,217.443 C 55.282,222.749 56.824,228.263 57.857,234.01 Z M 34.062,222.041 C 31.98,222.847 29.904,223.718 27.834,224.65 C 27.493,223.019 27.259,221.398 27.124,219.786 C 28.031,217.624 29.05,215.508 30.174,213.438 C 31.256,216.34 32.551,219.209 34.062,222.041 Z M 38.607,227.494 C 37.552,225.884 36.571,224.263 35.663,222.634 C 38.974,221.386 42.298,220.294 45.635,219.348 C 43.174,221.985 40.832,224.701 38.607,227.494 Z M 37.873,228.424 C 35.845,231.01 33.917,233.664 32.085,236.379 C 30.228,232.791 28.912,229.26 28.084,225.771 C 30.25,224.791 32.423,223.88 34.602,223.037 C 35.604,224.847 36.693,226.642 37.873,228.424 Z M 26.783,225.128 C 26.139,225.427 25.494,225.731 24.849,226.042 C 25.271,224.679 25.734,223.336 26.237,222.01 C 26.378,223.046 26.561,224.086 26.783,225.128 Z M 58.346,237.004 C 57.235,237.231 56.129,237.43 55.026,237.603 C 56.065,236.861 57.081,236.084 58.077,235.282 C 58.171,235.853 58.26,236.427 58.346,237.004 Z M 45.602,238.456 C 41.242,238.553 36.941,238.232 32.699,237.504 C 32.778,237.672 32.728,237.582 32.692,237.492 C 34.536,234.73 36.485,232.034 38.534,229.404 C 40.622,232.466 42.977,235.483 45.602,238.456 Z M 48.782,240.271 C 48.534,240.01 48.289,239.746 48.046,239.485 C 48.834,239.438 49.624,239.381 50.415,239.309 C 49.876,239.638 49.332,239.958 48.782,240.271 Z M 47.769,240.836 C 44.607,242.556 41.257,244.024 37.701,245.214 C 36.064,243.043 34.632,240.892 33.392,238.759 C 37.735,239.445 42.129,239.713 46.582,239.554 C 46.972,239.981 47.367,240.409 47.769,240.836 Z" stroke-linejoin="round" stroke-width="0" fill="#ffffff" marker-start="none" marker-end="none" stroke-miterlimit="79.8403193612775"/>
     <g id="Group_1" stroke-linejoin="round" stroke-width="0" fill="#ffffff" stroke-miterlimit="79.8403193612775">
      <path d="M 38.51,229.838 C 39.678,230.222 40.937,229.585 41.321,228.418 C 41.705,227.25 41.068,225.99 39.901,225.607 C 38.733,225.223 37.473,225.86 37.09,227.027 C 36.706,228.195 37.343,229.454 38.51,229.838 Z" marker-start="none" marker-end="none"/>
      <path d="M 34.823,223.953 C 35.896,224.306 37.054,223.721 37.407,222.647 C 37.759,221.574 37.174,220.416 36.101,220.064 C 35.028,219.711 33.87,220.296 33.517,221.369 C 33.165,222.443 33.75,223.6 34.823,223.953 Z" marker-start="none" marker-end="none"/>
      <path d="M 27.462,227.23 C 28.442,227.22 29.229,226.293 29.217,225.164 C 29.205,224.035 28.399,223.126 27.419,223.136 C 26.439,223.146 25.652,224.073 25.663,225.201 C 25.675,226.33 26.482,227.24 27.462,227.23 Z" marker-start="none" marker-end="none"/>
      <path d="M 26.399,221.393 C 27.211,221.468 27.979,220.617 28.11,219.496 C 28.242,218.375 27.688,217.405 26.876,217.33 C 26.063,217.255 25.296,218.105 25.164,219.227 C 25.033,220.348 25.587,221.318 26.399,221.393 Z" marker-start="none" marker-end="none"/>
      <path d="M 29.733,213.925 C 30.478,214.257 31.478,213.697 31.962,212.677 C 32.446,211.657 32.232,210.561 31.487,210.229 C 30.741,209.898 29.742,210.458 29.258,211.477 C 28.774,212.497 28.987,213.594 29.733,213.925 Z" marker-start="none" marker-end="none"/>
      <path d="M 52.92,218.658 C 53.994,219.01 55.151,218.425 55.504,217.352 C 55.857,216.279 55.272,215.121 54.198,214.768 C 53.125,214.416 51.967,215.001 51.615,216.074 C 51.262,217.147 51.847,218.305 52.92,218.658 Z" marker-start="none" marker-end="none"/>
      <path d="M 52.896,214.66 C 53.74,214.222 54.117,213.271 53.737,212.538 C 53.357,211.806 52.362,211.566 51.518,212.004 C 50.674,212.442 50.297,213.393 50.677,214.126 C 51.057,214.858 52.053,215.098 52.896,214.66 Z" marker-start="none" marker-end="none"/>
      <path d="M 46.764,240.107 C 47.738,240.25 48.623,239.724 48.739,238.935 C 48.855,238.145 48.159,237.387 47.185,237.243 C 46.212,237.1 45.326,237.626 45.21,238.416 C 45.094,239.205 45.79,239.963 46.764,240.107 Z" marker-start="none" marker-end="none"/>
      <path d="M 48.92,242.555 C 49.873,242.31 50.486,241.483 50.287,240.71 C 50.089,239.937 49.153,239.507 48.2,239.752 C 47.247,239.997 46.634,240.824 46.833,241.597 C 47.031,242.371 47.967,242.8 48.92,242.555 Z" marker-start="none" marker-end="none"/>
      <path d="M 53.17,239.933 C 54.211,239.653 54.887,238.727 54.677,237.867 C 54.467,237.007 53.449,236.537 52.408,236.817 C 51.367,237.097 50.691,238.023 50.901,238.883 C 51.111,239.743 52.128,240.213 53.17,239.933 Z" marker-start="none" marker-end="none"/>
      <path d="M 59.689,238.556 C 60.514,238.334 61.049,237.601 60.883,236.92 C 60.716,236.239 59.911,235.867 59.086,236.088 C 58.261,236.31 57.725,237.044 57.892,237.725 C 58.058,238.405 58.864,238.778 59.689,238.556 Z" marker-start="none" marker-end="none"/>
      <path d="M 59.429,235.294 C 60.201,234.743 60.474,233.773 60.038,233.129 C 59.601,232.485 58.618,232.409 57.846,232.959 C 57.073,233.509 56.8,234.48 57.237,235.124 C 57.674,235.768 58.656,235.844 59.429,235.294 Z" marker-start="none" marker-end="none"/>
      <path d="M 37.092,246.718 C 38.299,247.143 39.518,246.902 39.812,246.181 C 40.105,245.46 39.364,244.529 38.157,244.104 C 36.951,243.679 35.732,243.919 35.438,244.641 C 35.144,245.362 35.885,246.293 37.092,246.718 Z" marker-start="none" marker-end="none"/>
      <path d="M 30.899,238.428 C 31.582,239.411 32.76,239.802 33.529,239.3 C 34.297,238.798 34.367,237.592 33.684,236.61 C 33.002,235.627 31.823,235.236 31.054,235.738 C 30.286,236.24 30.217,237.446 30.899,238.428 Z" marker-start="none" marker-end="none"/>
      <path d="M 47.019,203.937 C 47.951,204.025 48.687,203.559 48.662,202.898 C 48.637,202.237 47.858,201.629 46.926,201.54 C 45.994,201.452 45.258,201.918 45.283,202.579 C 45.308,203.24 46.087,203.849 47.019,203.937 Z" marker-start="none" marker-end="none"/>
      <path d="M 59.039,208.465 C 59.915,208.793 60.748,208.535 60.896,207.89 C 61.044,207.246 60.45,206.455 59.574,206.127 C 58.697,205.799 57.864,206.058 57.716,206.702 C 57.568,207.347 58.162,208.137 59.039,208.465 Z" marker-start="none" marker-end="none"/>
      <path d="M 25.393,226.997 C 25.345,226.062 24.776,225.402 24.126,225.523 C 23.476,225.643 22.987,226.503 23.035,227.438 C 23.083,228.372 23.652,229.033 24.302,228.912 C 24.952,228.791 25.441,227.932 25.393,226.997 Z" marker-start="none" marker-end="none"/>
      <path d="M 48.84,219.352 C 49.663,218.608 49.807,217.422 49.161,216.708 C 48.515,215.994 47.32,216.019 46.497,216.763 C 45.675,217.507 45.531,218.692 46.177,219.407 C 46.823,220.121 48.018,220.096 48.84,219.352 Z" marker-start="none" marker-end="none"/>
     </g>
     <path d="M 51.334,228.833 L 54.64,228.833 C 56.146,228.833 57.239,228.619 57.92,228.19 C 58.6,227.761 58.941,227.08 58.94,226.145 C 58.941,225.51 58.792,224.99 58.494,224.583 C 58.196,224.176 57.8,223.932 57.306,223.849 L 57.306,223.777 C 57.979,223.627 58.465,223.346 58.762,222.934 C 59.06,222.522 59.209,221.975 59.209,221.292 C 59.209,220.323 58.859,219.568 58.159,219.025 C 57.46,218.483 56.509,218.212 55.308,218.212 L 51.334,218.212 L 51.334,228.833 Z M 53.586,224.627 L 54.894,224.627 C 55.504,224.627 55.946,224.721 56.22,224.91 C 56.493,225.099 56.63,225.411 56.63,225.847 C 56.63,226.254 56.481,226.546 56.183,226.723 C 55.886,226.899 55.415,226.988 54.77,226.988 L 53.586,226.988 L 53.586,224.627 Z M 53.586,222.839 L 53.586,220.071 L 55.054,220.071 C 55.674,220.071 56.131,220.19 56.427,220.427 C 56.722,220.665 56.87,221.028 56.87,221.517 C 56.87,222.399 56.24,222.839 54.981,222.839 L 53.586,222.839 Z" stroke-linejoin="round" fill-rule="nonzero" stroke-width="0.371" fill="#0b466e" marker-start="none" marker-end="none" stroke-miterlimit="79.8403193612775"/>
     <path d="M 68.015,218.212 L 60.59,218.212 L 60.59,219.774 L 63.256,222.469 C 64.046,223.278 64.562,223.838 64.803,224.151 C 65.046,224.463 65.22,224.752 65.327,225.019 C 65.433,225.285 65.486,225.561 65.486,225.847 C 65.486,226.273 65.369,226.591 65.134,226.799 C 64.899,227.007 64.585,227.111 64.193,227.111 C 63.782,227.111 63.382,227.017 62.995,226.828 C 62.607,226.639 62.203,226.37 61.781,226.021 L 60.561,227.467 C 61.084,227.913 61.517,228.228 61.861,228.412 C 62.205,228.596 62.581,228.737 62.987,228.837 C 63.394,228.936 63.849,228.986 64.353,228.986 C 65.017,228.986 65.603,228.864 66.111,228.622 C 66.62,228.38 67.014,228.041 67.295,227.605 C 67.576,227.169 67.717,226.67 67.717,226.109 C 67.717,225.619 67.631,225.161 67.459,224.732 C 67.287,224.303 67.021,223.864 66.66,223.413 C 66.299,222.963 65.663,222.321 64.753,221.488 L 63.387,220.202 L 63.387,220.101 L 68.015,220.101 L 68.015,218.212 Z" stroke-linejoin="round" fill-rule="nonzero" stroke-width="0.371" fill="#0b466e" marker-start="none" marker-end="none" stroke-miterlimit="79.8403193612775"/>
     <path d="M 69.824,228.833 L 73.129,228.833 C 74.636,228.833 75.729,228.619 76.41,228.19 C 77.09,227.761 77.43,227.08 77.43,226.145 C 77.43,225.51 77.281,224.99 76.983,224.583 C 76.686,224.176 76.29,223.932 75.796,223.849 L 75.796,223.777 C 76.469,223.627 76.955,223.346 77.252,222.934 C 77.55,222.522 77.699,221.975 77.699,221.292 C 77.699,220.323 77.349,219.568 76.649,219.025 C 75.949,218.483 74.999,218.212 73.798,218.212 L 69.824,218.212 L 69.824,228.833 Z M 72.076,224.627 L 73.384,224.627 C 73.994,224.627 74.436,224.721 74.709,224.91 C 74.983,225.099 75.12,225.411 75.12,225.847 C 75.12,226.254 74.971,226.546 74.673,226.723 C 74.376,226.899 73.904,226.988 73.26,226.988 L 72.076,226.988 L 72.076,224.627 Z M 72.076,222.839 L 72.076,220.071 L 73.544,220.071 C 74.164,220.071 74.621,220.19 74.917,220.427 C 75.212,220.665 75.36,221.028 75.36,221.517 C 75.36,222.399 74.73,222.839 73.471,222.839 L 72.076,222.839 Z" stroke-linejoin="round" fill-rule="nonzero" stroke-width="0.371" fill="#0b466e" marker-start="none" marker-end="none" stroke-miterlimit="79.8403193612775"/>
     <path d="M 111.092,248.921 C 124.268,262.096 145.654,262.096 158.83,248.921 C 172.005,235.745 172.005,214.359 158.83,201.183 C 145.654,188.008 124.268,188.008 111.092,201.183 C 97.917,214.359 97.917,235.745 111.092,248.921 Z" stroke-linejoin="round" stroke-width="0" marker-start="none" marker-end="none" stroke-miterlimit="79.8403193612775"/>
     <path d="M 114.403,235.447 C 120.183,246.885 134.159,251.478 145.597,245.697 C 157.035,239.917 161.628,225.941 155.847,214.503 C 150.067,203.065 136.091,198.472 124.653,204.253 C 113.215,210.033 108.622,224.009 114.403,235.447 Z" stroke-linejoin="round" stroke-width="0" fill="#6acff6" marker-start="none" marker-end="none" stroke-miterlimit="79.8403193612775"/>
     <path d="M 132.986,201.851 C 134.027,202.117 135.063,202.404 136.092,202.71 C 138.121,206.155 139.933,209.694 141.517,213.338 C 139.991,214.789 138.502,216.266 137.054,217.77 C 133.031,218.845 129.027,220.13 125.045,221.636 C 123.369,218.51 121.963,215.345 120.822,212.141 C 122.551,209.107 124.516,206.172 126.706,203.334 C 126.021,203.602 125.343,203.904 124.675,204.243 C 123.078,206.339 121.647,208.508 120.339,210.729 C 120.021,209.767 119.726,208.802 119.456,207.834 C 119.142,208.121 118.837,208.417 118.538,208.719 C 118.861,209.827 119.21,210.931 119.591,212.031 C 118.626,213.749 117.736,215.499 116.922,217.283 C 116.871,214.803 117.054,212.347 117.451,209.91 C 116.958,210.492 116.495,211.092 116.063,211.713 C 115.762,214.324 115.7,216.956 115.904,219.609 C 114.943,221.923 114.107,224.294 113.394,226.715 C 112.94,226.942 112.482,227.17 112.029,227.402 C 112.07,227.799 112.122,228.193 112.183,228.587 C 112.449,228.45 112.716,228.314 112.982,228.18 C 112.806,228.829 112.64,229.481 112.482,230.137 C 112.657,230.898 112.872,231.658 113.128,232.412 C 113.471,230.751 113.875,229.116 114.337,227.504 C 115.211,227.075 116.089,226.657 116.964,226.251 C 117.845,229.873 119.236,233.537 121.189,237.244 C 118.937,236.808 116.698,236.257 114.478,235.594 C 114.722,236.072 114.983,236.538 115.257,236.991 C 117.074,237.503 118.899,237.939 120.735,238.302 C 120.059,239.339 119.398,240.388 118.751,241.443 C 119.022,241.715 119.302,241.978 119.587,242.232 C 120.339,240.996 121.115,239.773 121.908,238.564 C 123.211,240.884 124.734,243.223 126.493,245.581 C 126.07,245.713 125.644,245.843 125.214,245.968 C 125.743,246.219 126.282,246.447 126.827,246.655 C 126.957,246.615 127.086,246.575 127.214,246.532 C 127.31,246.656 127.404,246.779 127.501,246.902 C 128.123,247.118 128.755,247.308 129.394,247.471 C 129.037,247.032 128.688,246.594 128.349,246.158 C 131.931,244.935 135.307,243.435 138.492,241.682 C 140.082,243.341 141.759,244.987 143.524,246.622 C 143.907,246.473 144.286,246.314 144.664,246.143 C 142.853,244.479 141.133,242.801 139.504,241.111 C 140.651,240.452 141.773,239.76 142.87,239.035 C 144.711,238.802 146.565,238.498 148.425,238.119 C 148.67,239.921 148.862,241.743 149.007,243.59 C 149.369,243.32 149.723,243.041 150.065,242.752 C 149.926,241.114 149.746,239.491 149.529,237.887 C 151.456,237.465 153.394,236.966 155.342,236.387 C 155.599,235.93 155.843,235.464 156.068,234.992 C 153.821,235.692 151.588,236.282 149.372,236.77 C 149.256,235.995 149.132,235.225 149,234.46 C 152.353,231.647 155.456,228.506 158.345,225.084 C 158.347,224.521 158.331,223.954 158.293,223.389 C 155.355,226.973 152.194,230.253 148.771,233.181 C 147.739,227.651 146.239,222.331 144.303,217.208 C 148.263,216.386 152.242,215.76 156.238,215.314 C 156.114,215.042 155.984,214.77 155.848,214.503 C 155.803,214.414 155.758,214.327 155.713,214.239 C 151.757,214.694 147.817,215.323 143.894,216.144 C 143.56,215.295 143.217,214.452 142.861,213.615 C 144.979,211.624 147.174,209.684 149.446,207.796 C 150.282,208.175 151.115,208.567 151.947,208.963 C 151.04,208.009 150.06,207.145 149.023,206.372 C 145.127,204.631 141.161,203.089 137.092,201.839 C 135.736,201.723 134.361,201.725 132.986,201.851 Z M 148.304,207.283 C 146.27,208.987 144.298,210.732 142.387,212.516 C 140.987,209.335 139.414,206.231 137.679,203.201 C 141.285,204.352 144.82,205.737 148.304,207.283 Z M 142.779,216.383 C 141.569,216.646 140.361,216.927 139.153,217.229 C 140.082,216.289 141.028,215.36 141.989,214.443 C 142.259,215.086 142.522,215.731 142.779,216.383 Z M 147.78,234.011 C 146.073,235.412 144.305,236.729 142.469,237.952 C 140.629,238.177 138.805,238.331 136.987,238.409 C 134.057,235.149 131.455,231.838 129.184,228.48 C 131.838,225.134 134.656,221.899 137.648,218.776 C 139.488,218.288 141.339,217.845 143.19,217.444 C 145.205,222.75 146.747,228.264 147.78,234.011 Z M 123.985,222.042 C 121.903,222.848 119.827,223.719 117.757,224.651 C 117.416,223.02 117.182,221.399 117.047,219.787 C 117.954,217.625 118.973,215.509 120.097,213.439 C 121.179,216.341 122.474,219.21 123.985,222.042 Z M 128.53,227.495 C 127.475,225.885 126.494,224.264 125.586,222.635 C 128.897,221.387 132.221,220.295 135.558,219.349 C 133.097,221.986 130.755,224.702 128.53,227.495 Z M 127.796,228.425 C 125.768,231.011 123.84,233.665 122.008,236.38 C 120.151,232.792 118.835,229.261 118.007,225.772 C 120.173,224.792 122.346,223.881 124.525,223.038 C 125.527,224.848 126.616,226.643 127.796,228.425 Z M 116.706,225.129 C 116.062,225.428 115.417,225.732 114.772,226.043 C 115.194,224.68 115.657,223.337 116.16,222.011 C 116.301,223.047 116.484,224.087 116.706,225.129 Z M 148.269,237.005 C 147.158,237.232 146.052,237.431 144.949,237.604 C 145.988,236.862 147.004,236.085 148,235.283 C 148.094,235.854 148.183,236.428 148.269,237.005 Z M 135.525,238.457 C 131.165,238.554 126.864,238.233 122.622,237.505 C 122.701,237.673 122.651,237.583 122.615,237.493 C 124.459,234.731 126.408,232.035 128.457,229.405 C 130.545,232.467 132.9,235.484 135.525,238.457 Z M 138.705,240.272 C 138.457,240.011 138.212,239.747 137.969,239.486 C 138.757,239.439 139.547,239.382 140.338,239.31 C 139.799,239.639 139.255,239.959 138.705,240.272 Z M 137.692,240.837 C 134.53,242.557 131.18,244.025 127.624,245.215 C 125.987,243.044 124.555,240.893 123.315,238.76 C 127.658,239.446 132.052,239.714 136.505,239.555 C 136.895,239.982 137.29,240.41 137.692,240.837 Z" stroke-linejoin="round" stroke-width="0" fill="#ffffff" marker-start="none" marker-end="none" stroke-miterlimit="79.8403193612775"/>
     <g id="Group_2" stroke-linejoin="round" stroke-width="0" fill="#ffffff" stroke-miterlimit="79.8403193612775">
      <path d="M 128.433,229.839 C 129.601,230.223 130.86,229.586 131.244,228.419 C 131.628,227.251 130.991,225.991 129.824,225.608 C 128.656,225.224 127.396,225.861 127.013,227.028 C 126.629,228.196 127.266,229.455 128.433,229.839 Z" marker-start="none" marker-end="none"/>
      <path d="M 124.746,223.954 C 125.819,224.307 126.977,223.722 127.33,222.648 C 127.682,221.575 127.097,220.417 126.024,220.065 C 124.951,219.712 123.793,220.297 123.44,221.37 C 123.088,222.444 123.673,223.601 124.746,223.954 Z" marker-start="none" marker-end="none"/>
      <path d="M 117.385,227.231 C 118.365,227.221 119.152,226.294 119.14,225.165 C 119.128,224.036 118.322,223.127 117.342,223.137 C 116.362,223.147 115.575,224.074 115.586,225.202 C 115.598,226.331 116.405,227.241 117.385,227.231 Z" marker-start="none" marker-end="none"/>
      <path d="M 116.322,221.394 C 117.134,221.469 117.902,220.618 118.033,219.497 C 118.165,218.376 117.611,217.406 116.799,217.331 C 115.986,217.256 115.219,218.106 115.087,219.228 C 114.956,220.349 115.51,221.319 116.322,221.394 Z" marker-start="none" marker-end="none"/>
      <path d="M 119.656,213.926 C 120.401,214.258 121.401,213.698 121.885,212.678 C 122.369,211.658 122.155,210.562 121.41,210.23 C 120.664,209.899 119.665,210.459 119.181,211.478 C 118.697,212.498 118.91,213.595 119.656,213.926 Z" marker-start="none" marker-end="none"/>
      <path d="M 142.843,218.659 C 143.917,219.011 145.074,218.426 145.427,217.353 C 145.78,216.28 145.195,215.122 144.121,214.769 C 143.048,214.417 141.89,215.002 141.538,216.075 C 141.185,217.148 141.77,218.306 142.843,218.659 Z" marker-start="none" marker-end="none"/>
      <path d="M 142.819,214.661 C 143.663,214.223 144.04,213.272 143.66,212.539 C 143.28,211.807 142.285,211.567 141.441,212.005 C 140.597,212.443 140.22,213.394 140.6,214.127 C 140.98,214.859 141.976,215.099 142.819,214.661 Z" marker-start="none" marker-end="none"/>
      <path d="M 136.687,240.108 C 137.661,240.251 138.546,239.725 138.662,238.936 C 138.778,238.146 138.082,237.388 137.108,237.244 C 136.135,237.101 135.249,237.627 135.133,238.417 C 135.017,239.206 135.713,239.964 136.687,240.108 Z" marker-start="none" marker-end="none"/>
      <path d="M 138.843,242.556 C 139.796,242.311 140.409,241.484 140.21,240.711 C 140.012,239.938 139.076,239.508 138.123,239.753 C 137.17,239.998 136.557,240.825 136.756,241.598 C 136.954,242.372 137.89,242.801 138.843,242.556 Z" marker-start="none" marker-end="none"/>
      <path d="M 143.093,239.934 C 144.134,239.654 144.81,238.728 144.6,237.868 C 144.39,237.008 143.372,236.538 142.331,236.818 C 141.29,237.098 140.614,238.024 140.824,238.884 C 141.034,239.744 142.051,240.214 143.093,239.934 Z" marker-start="none" marker-end="none"/>
      <path d="M 149.612,238.557 C 150.437,238.335 150.972,237.602 150.806,236.921 C 150.639,236.24 149.834,235.868 149.009,236.089 C 148.184,236.311 147.648,237.045 147.815,237.726 C 147.981,238.406 148.787,238.779 149.612,238.557 Z" marker-start="none" marker-end="none"/>
      <path d="M 149.352,235.295 C 150.124,234.744 150.397,233.774 149.961,233.13 C 149.524,232.486 148.541,232.41 147.769,232.96 C 146.996,233.51 146.723,234.481 147.16,235.125 C 147.597,235.769 148.579,235.845 149.352,235.295 Z" marker-start="none" marker-end="none"/>
      <path d="M 127.015,246.719 C 128.222,247.144 129.441,246.903 129.735,246.182 C 130.028,245.461 129.287,244.53 128.08,244.105 C 126.874,243.68 125.655,243.92 125.361,244.642 C 125.067,245.363 125.808,246.294 127.015,246.719 Z" marker-start="none" marker-end="none"/>
      <path d="M 120.822,238.429 C 121.505,239.412 122.683,239.803 123.452,239.301 C 124.22,238.799 124.29,237.593 123.607,236.611 C 122.925,235.628 121.746,235.237 120.977,235.739 C 120.209,236.241 120.14,237.447 120.822,238.429 Z" marker-start="none" marker-end="none"/>
      <path d="M 136.942,203.938 C 137.874,204.026 138.61,203.56 138.585,202.899 C 138.56,202.238 137.781,201.63 136.849,201.541 C 135.917,201.453 135.181,201.919 135.206,202.58 C 135.231,203.241 136.01,203.85 136.942,203.938 Z" marker-start="none" marker-end="none"/>
      <path d="M 148.962,208.466 C 149.838,208.794 150.671,208.536 150.819,207.891 C 150.967,207.247 150.373,206.456 149.497,206.128 C 148.62,205.8 147.787,206.059 147.639,206.703 C 147.491,207.348 148.085,208.138 148.962,208.466 Z" marker-start="none" marker-end="none"/>
      <path d="M 115.316,226.998 C 115.268,226.063 114.699,225.403 114.049,225.524 C 113.399,225.644 112.91,226.504 112.958,227.439 C 113.006,228.373 113.575,229.034 114.225,228.913 C 114.875,228.792 115.364,227.933 115.316,226.998 Z" marker-start="none" marker-end="none"/>
      <path d="M 138.763,219.353 C 139.586,218.609 139.73,217.423 139.084,216.709 C 138.438,215.995 137.243,216.02 136.42,216.764 C 135.598,217.508 135.454,218.693 136.1,219.408 C 136.746,220.122 137.941,220.097 138.763,219.353 Z" marker-start="none" marker-end="none"/>
     </g>
     <path d="M 141.257,228.834 L 144.563,228.834 C 146.069,228.834 147.162,228.62 147.843,228.191 C 148.523,227.762 148.864,227.081 148.863,226.146 C 148.864,225.511 148.715,224.991 148.417,224.584 C 148.119,224.177 147.723,223.933 147.229,223.85 L 147.229,223.778 C 147.902,223.628 148.388,223.347 148.685,222.935 C 148.983,222.523 149.132,221.976 149.132,221.293 C 149.132,220.324 148.782,219.569 148.082,219.026 C 147.383,218.484 146.432,218.213 145.231,218.213 L 141.257,218.213 L 141.257,228.834 Z M 143.509,224.628 L 144.817,224.628 C 145.427,224.628 145.869,224.722 146.143,224.911 C 146.416,225.1 146.553,225.412 146.553,225.848 C 146.553,226.255 146.404,226.547 146.106,226.724 C 145.809,226.9 145.338,226.989 144.693,226.989 L 143.509,226.989 L 143.509,224.628 Z M 143.509,222.84 L 143.509,220.072 L 144.977,220.072 C 145.597,220.072 146.054,220.191 146.35,220.428 C 146.645,220.666 146.793,221.029 146.793,221.518 C 146.793,222.4 146.163,222.84 144.904,222.84 L 143.509,222.84 Z" stroke-linejoin="round" fill-rule="nonzero" stroke-width="0.371" fill="#0b466e" marker-start="none" marker-end="none" stroke-miterlimit="79.8403193612775"/>
     <path d="M 157.938,218.213 L 150.513,218.213 L 150.513,219.775 L 153.179,222.47 C 153.969,223.279 154.485,223.839 154.726,224.152 C 154.969,224.464 155.143,224.753 155.25,225.02 C 155.356,225.286 155.409,225.562 155.409,225.848 C 155.409,226.274 155.292,226.592 155.057,226.8 C 154.822,227.008 154.508,227.112 154.116,227.112 C 153.705,227.112 153.305,227.018 152.918,226.829 C 152.53,226.64 152.126,226.371 151.704,226.022 L 150.484,227.468 C 151.007,227.914 151.44,228.229 151.784,228.413 C 152.128,228.597 152.504,228.738 152.91,228.838 C 153.317,228.937 153.772,228.987 154.276,228.987 C 154.94,228.987 155.526,228.865 156.034,228.623 C 156.543,228.381 156.937,228.042 157.218,227.606 C 157.499,227.17 157.64,226.671 157.64,226.11 C 157.64,225.62 157.554,225.162 157.382,224.733 C 157.21,224.304 156.944,223.865 156.583,223.414 C 156.222,222.964 155.586,222.322 154.676,221.489 L 153.31,220.203 L 153.31,220.102 L 157.938,220.102 L 157.938,218.213 Z" stroke-linejoin="round" fill-rule="nonzero" stroke-width="0.371" fill="#0b466e" marker-start="none" marker-end="none" stroke-miterlimit="79.8403193612775"/>
     <path d="M 164.258,227.112 C 163.411,227.112 162.755,226.794 162.29,226.157 C 161.825,225.52 161.592,224.632 161.592,223.494 C 161.592,221.126 162.481,219.942 164.258,219.942 C 165.004,219.942 165.908,220.128 166.968,220.501 L 166.968,218.612 C 166.097,218.249 165.123,218.067 164.048,218.067 C 162.503,218.067 161.321,218.536 160.502,219.473 C 159.684,220.41 159.275,221.756 159.275,223.509 C 159.275,224.613 159.476,225.581 159.878,226.411 C 160.28,227.242 160.857,227.879 161.61,228.322 C 162.363,228.765 163.246,228.987 164.258,228.987 C 165.29,228.987 166.326,228.737 167.368,228.238 L 166.641,226.407 C 166.244,226.596 165.845,226.761 165.443,226.901 C 165.041,227.042 164.646,227.112 164.258,227.112 Z" stroke-linejoin="round" fill-rule="nonzero" stroke-width="0.371" fill="#0b466e" marker-start="none" marker-end="none" stroke-miterlimit="79.8403193612775"/>
     <path d="M 0.038,270.051 L 0.038,180.051 L 90.038,180.051 L 90.038,270.051 L 0.038,270.051 Z" stroke-width="0" stroke-linejoin="miter" marker-start="none" marker-end="none" stroke-miterlimit="79.8403193612775"/>
     <path d="M 89.961,270.052 L 89.961,180.052 L 179.961,180.052 L 179.961,270.052 L 89.961,270.052 Z" stroke-width="0" stroke-linejoin="miter" marker-start="none" marker-end="none" stroke-miterlimit="79.8403193612775"/>
     <path d="M 45.053,115.026 C 48.719,115.026 51.695,113.883 51.695,112.474 C 51.695,111.066 48.719,109.922 45.053,109.922 C 41.387,109.922 38.411,111.066 38.411,112.474 C 38.411,113.883 41.387,115.026 45.053,115.026 Z" stroke-linejoin="round" stroke-width="0" fill="#89cfd9" marker-start="none" marker-end="none" stroke-miterlimit="79.8403193612775"/>
     <path d="M 45.053,114.844 C 48.458,114.844 51.223,113.835 51.223,112.592 C 51.223,111.349 48.458,110.34 45.053,110.34 C 41.648,110.34 38.884,111.349 38.884,112.592 C 38.884,113.835 41.648,114.844 45.053,114.844 Z" stroke-linejoin="round" stroke-width="0" fill="#ffffff" marker-start="none" marker-end="none" stroke-miterlimit="79.8403193612775"/>
     <path d="M 44.542,114.944 C 47.729,114.944 50.317,113.96 50.317,112.75 C 50.317,111.539 47.729,110.556 44.542,110.556 C 41.354,110.556 38.766,111.539 38.766,112.75 C 38.766,113.96 41.354,114.944 44.542,114.944 Z" stroke-linejoin="round" stroke-width="0" fill="#8fd7e1" marker-start="none" marker-end="none" stroke-miterlimit="79.8403193612775"/>
     <path d="M 43.067,132.375 C 45.222,124.443 44.623,118.597 42.477,113.926 L 47.692,113.926 C 45.685,118.679 45.388,124.776 47.003,132.375 L 43.067,132.375 Z" stroke-linejoin="round" stroke-width="0" fill="#99d7e0" marker-start="none" marker-end="none" stroke-miterlimit="79.8403193612775"/>
     <path d="M 29.466,149.28 L 60.611,149.28 C 59.122,146.901 56.617,144.042 54.052,141.154 C 50.952,137.918 48.501,134.927 47.02,132.37 L 43.104,132.37 C 41.467,134.766 39.689,137.267 35.908,141.244 C 33.423,143.774 31.066,146.526 29.466,149.28 Z" stroke-linejoin="round" stroke-width="0" fill="#a2e4ed" marker-start="none" marker-end="none" stroke-miterlimit="79.8403193612775"/>
     <path d="M 45.054,133.03 C 46.14,133.03 47.022,132.741 47.022,132.385 C 47.022,132.029 46.14,131.739 45.054,131.739 C 43.967,131.739 43.085,132.029 43.085,132.385 C 43.085,132.741 43.967,133.03 45.054,133.03 Z" stroke-linejoin="round" stroke-width="0" marker-start="none" marker-end="none" stroke-miterlimit="79.8403193612775"/>
     <path d="M 35.245,142.952 L 42.329,134.539 C 44.149,133.364 45.836,133.388 47.396,134.539 L 54.825,142.902 L 35.245,142.952 Z" stroke-linejoin="round" stroke-width="0" fill="#c32b4a" marker-start="none" marker-end="none" stroke-miterlimit="79.8403193612775"/>
     <path d="M 45.054,151.566 C 53.642,151.566 60.612,150.561 60.612,149.322 C 60.612,148.084 53.642,147.078 45.054,147.078 C 36.466,147.078 29.495,148.084 29.495,149.322 C 29.495,150.561 36.466,151.566 45.054,151.566 Z" stroke-linejoin="round" stroke-width="0" fill="#ffffff" marker-start="none" marker-end="none" stroke-miterlimit="79.8403193612775"/>
     <path d="M 44.808,151.566 C 53.26,151.566 60.12,150.671 60.12,149.568 C 60.12,148.465 53.26,147.57 44.808,147.57 C 36.355,147.57 29.495,148.465 29.495,149.568 C 29.495,150.671 36.355,151.566 44.808,151.566 Z" stroke-linejoin="round" stroke-width="0" fill="#9fe2eb" marker-start="none" marker-end="none" stroke-miterlimit="79.8403193612775"/>
     <path d="M 45.054,144.655 C 50.485,144.655 54.894,143.966 54.894,143.117 C 54.894,142.269 50.485,141.58 45.054,141.58 C 39.623,141.58 35.215,142.269 35.215,143.117 C 35.215,143.966 39.623,144.655 45.054,144.655 Z" stroke-linejoin="round" stroke-width="0" fill="#e8496a" marker-start="none" marker-end="none" stroke-miterlimit="79.8403193612775"/>
     <path d="M 45.053,114.91 C 46.513,114.91 47.698,114.454 47.698,113.894 C 47.698,113.333 46.513,112.877 45.053,112.877 C 43.593,112.877 42.408,113.333 42.408,113.894 C 42.408,114.454 43.593,114.91 45.053,114.91 Z" stroke-linejoin="round" stroke-width="0" fill="#85d6e1" marker-start="none" marker-end="none" stroke-miterlimit="79.8403193612775"/>
     <path d="M 46.762,132.768 C 45.117,126.714 45.285,120.611 47.002,114.106 C 47.164,113.594 46.594,113.358 45.403,113.429 C 45.094,119.886 45.064,126.343 45.403,132.8 C 45.787,133.328 46.088,133.24 46.762,132.768 Z" stroke-linejoin="round" stroke-width="0" fill="#dff7fb" marker-start="none" marker-end="none" stroke-miterlimit="79.8403193612775"/>
     <path d="M 45.157,134.46 C 47.373,138.681 49.752,142.822 52.291,146.882 C 54.26,146.989 56.307,147.25 58.44,147.681 C 55.164,143.318 51.237,139.086 47.125,134.89 C 46.376,134.469 45.741,134.388 45.157,134.46 Z" stroke-linejoin="round" stroke-width="0" stroke-opacity="0.337255" fill="#316b73" marker-start="none" marker-end="none" stroke-miterlimit="79.8403193612775" fill-opacity="0.337255"/>
     <path d="M 37.665,147.822 L 36.935,147.888 C 34.93,152.016 33.02,156.143 31.206,160.271 C 33.481,156.121 35.633,151.972 37.665,147.822 Z" stroke-linejoin="round" stroke-width="0" fill="#808080" marker-start="none" marker-end="none" stroke-miterlimit="79.8403193612775"/>
     <path d="M 40.554,141.748 L 39.966,141.794 C 39.793,142.135 39.619,142.476 39.447,142.818 C 39.72,142.639 39.745,142.672 39.949,142.872 L 40.006,142.927 C 40.19,142.534 40.372,142.141 40.554,141.748 Z" stroke-linejoin="round" stroke-width="0" fill="#cd3553" marker-start="none" marker-end="none" stroke-miterlimit="79.8403193612775"/>
     <path d="M 39.447,142.818 C 38.684,144.329 37.934,145.84 37.197,147.352 L 37.917,147.308 C 38.628,145.847 39.324,144.387 40.006,142.927 L 39.949,142.872 C 39.745,142.672 39.72,142.639 39.447,142.818 Z" stroke-linejoin="round" stroke-width="0" fill="#6e9fa6" marker-start="none" marker-end="none" stroke-miterlimit="79.8403193612775"/>
     <path d="M 39.966,141.794 L 40.554,141.748 C 41.676,139.317 42.758,136.885 43.8,134.454 C 42.489,136.9 41.21,139.347 39.966,141.794 Z" stroke-linejoin="round" stroke-width="0" fill="#952038" marker-start="none" marker-end="none" stroke-miterlimit="79.8403193612775"/>
     <path d="M 125.71,111.544 C 124.066,113.313 121.702,114.003 119.054,114.263 C 121.028,121.85 124.599,129.24 128.616,136.575 C 130.319,139.662 130.46,142.64 128.71,145.481 C 125.936,148.732 125.625,151.531 129.554,153.544 C 131.772,153.247 133.469,152.08 134.961,150.575 C 136.453,152.08 138.15,153.248 140.37,153.545 C 144.299,151.532 143.988,148.733 141.214,145.482 C 139.464,142.641 139.605,139.663 141.308,136.576 C 145.325,129.241 148.896,121.851 150.87,114.264 C 148.222,114.004 145.858,113.314 144.214,111.545 C 141.871,109.494 139.526,109.338 137.183,110.982 C 136.473,111.447 135.735,111.681 134.967,111.719 C 134.202,111.684 133.456,111.45 132.741,110.981 C 130.398,109.337 128.053,109.493 125.71,111.544 Z" stroke-linejoin="round" stroke-width="0" fill="#bc1647" marker-start="none" marker-end="none" stroke-miterlimit="79.8403193612775"/>
     <path d="M 140.35,153.542 C 139.894,155.616 139.756,157.827 140.106,160.243 L 139.806,160.329 C 139.506,158.017 139.402,155.68 139.356,153.336 L 140.35,153.542 Z" stroke-linejoin="round" stroke-width="0" fill="#454545" marker-start="none" marker-end="none" stroke-miterlimit="79.8403193612775"/>
     <path d="M 129.914,140.301 L 129.914,141.654 C 133.191,139.146 136.568,139.217 140.039,141.654 L 140.039,140.295 C 136.988,138.332 133.763,137.423 129.914,140.301 Z" stroke-linejoin="round" stroke-width="0" fill="#900a32" marker-start="none" marker-end="none" stroke-miterlimit="79.8403193612775"/>
     <path d="M 129.914,140.683 L 129.914,141.654 C 133.191,139.854 136.568,139.905 140.039,141.654 L 140.039,140.679 C 136.988,139.27 133.763,138.618 129.914,140.683 Z" stroke-linejoin="round" stroke-width="0" fill="#ffd2e3" marker-start="none" marker-end="none" stroke-miterlimit="79.8403193612775"/>
     <path d="M 134.955,150.61 C 135.575,151.312 136.303,151.982 137.299,152.557 C 136.119,150.248 135.411,147.802 135.095,145.244 C 134.652,147.708 134.063,150.113 132.986,152.319 C 133.883,151.75 134.449,151.179 134.955,150.61 Z" stroke-linejoin="round" stroke-width="0" fill="#ffffff" marker-start="none" marker-end="none" stroke-miterlimit="79.8403193612775"/>
     <path d="M 134.25,139.625 C 134.641,140.074 135.277,140.074 135.668,139.625 C 136.059,139.176 136.059,138.444 135.668,137.995 C 135.277,137.546 134.641,137.546 134.25,137.995 C 133.859,138.444 133.859,139.176 134.25,139.625 Z" stroke-linejoin="round" stroke-width="0" fill="#900a32" marker-start="none" marker-end="none" stroke-miterlimit="79.8403193612775"/>
     <path d="M 134.25,140.487 C 134.641,140.877 135.277,140.877 135.668,140.487 C 136.058,140.096 136.058,139.46 135.668,139.069 C 135.277,138.679 134.641,138.679 134.25,139.069 C 133.86,139.46 133.86,140.096 134.25,140.487 Z" stroke-linejoin="round" stroke-width="0" fill="#ffd2e3" marker-start="none" marker-end="none" stroke-miterlimit="79.8403193612775"/>
     <path d="M 137.183,110.982 C 136.473,111.447 135.735,111.681 134.967,111.719 C 134.202,111.684 133.456,111.45 132.741,110.981 C 132.369,110.72 131.998,110.505 131.626,110.335 L 131.648,110.371 C 133.555,113.589 134.78,118.355 135.068,125.129 C 135.549,119.941 136.504,114.878 138.715,110.164 C 138.204,110.35 137.693,110.623 137.183,110.982 Z" stroke-linejoin="round" stroke-width="0" fill="#9d1940" marker-start="none" marker-end="none" stroke-miterlimit="79.8403193612775"/>
     <path d="M 129.56,153.54 C 130.016,155.614 130.154,157.825 129.804,160.241 L 130.104,160.327 C 130.404,158.015 130.508,155.678 130.554,153.334 L 129.56,153.54 Z" stroke-linejoin="round" stroke-width="0" fill="#454545" marker-start="none" marker-end="none" stroke-miterlimit="79.8403193612775"/>
     <path d="M 21.172,68.816 C 34.348,81.991 55.734,81.991 68.91,68.816 C 82.085,55.64 82.085,34.254 68.91,21.078 C 55.734,7.903 34.348,7.903 21.172,21.078 C 7.997,34.254 7.997,55.64 21.172,68.816 Z" stroke-linejoin="round" stroke-width="0" marker-start="none" marker-end="none" stroke-miterlimit="79.8403193612775"/>
     <path d="M 0.041,89.947 L 0.041,-0.053 L 90.041,-0.053 L 90.041,89.947 L 0.041,89.947 Z" stroke-width="0" stroke-linejoin="miter" marker-start="none" marker-end="none" stroke-miterlimit="79.8403193612775"/>
     <path d="M 14.973,48.812 L 14.973,33.268 L 41.803,33.268 L 41.803,48.812 L 14.973,48.812 Z" stroke-width="0" fill="#c9d0d4" stroke-linejoin="miter" marker-start="none" marker-end="none" stroke-miterlimit="79.8403193612775"/>
     <path d="M 41.103,48.812 L 41.103,33.268 L 41.803,33.268 L 41.803,48.812 L 41.103,48.812 Z" stroke-width="0" fill="#b1bbc1" stroke-linejoin="miter" marker-start="none" marker-end="none" stroke-miterlimit="79.8403193612775"/>
     <path d="M 41.685,41.312 L 41.685,30.59 L 73.997,30.59 L 73.997,41.312 L 41.685,41.312 Z" stroke-width="0" fill="#c0cacf" stroke-linejoin="miter" marker-start="none" marker-end="none" stroke-miterlimit="79.8403193612775"/>
     <path d="M 42.302,53.305 L 19.495,53.305 L 14.479,48.748 L 41.776,48.748 L 42.302,53.305 Z" stroke-width="0" fill="#980d0d" stroke-linejoin="round" marker-start="none" marker-end="none" stroke-miterlimit="79.8403193612775"/>
     <path d="M 14.973,48.811 L 14.973,48.023 L 41.803,48.023 L 41.803,48.811 L 14.973,48.811 Z" stroke-width="0" fill="#b1bbc1" stroke-linejoin="miter" marker-start="none" marker-end="none" stroke-miterlimit="79.8403193612775"/>
     <path d="M 41.684,61.723 L 41.684,48.599 L 44.161,48.599 L 44.161,61.723 L 41.684,61.723 Z" stroke-width="0" fill="#9ea8ad" stroke-linejoin="miter" marker-start="none" marker-end="none" stroke-miterlimit="79.8403193612775"/>
     <path d="M 41.747,41.23 L 41.747,39.974 L 73.943,39.974 L 73.943,41.23 L 41.747,41.23 Z" stroke-width="0" fill="#94a0a6" stroke-linejoin="miter" marker-start="none" marker-end="none" stroke-miterlimit="79.8403193612775"/>
     <path d="M 41.689,51.894 L 41.689,41.172 L 75.166,41.172 L 75.166,51.894 L 41.689,51.894 Z" stroke-width="0" fill="#dbe0e3" stroke-linejoin="miter" marker-start="none" marker-end="none" stroke-miterlimit="79.8403193612775"/>
     <path d="M 41.688,51.902 L 41.688,51.114 L 75.107,51.114 L 75.107,51.902 L 41.688,51.902 Z" stroke-width="0" fill="#b2b3b3" stroke-linejoin="miter" marker-start="none" marker-end="none" stroke-miterlimit="79.8403193612775"/>
     <path d="M 68.547,57.593 L 42.243,57.593 L 41.653,51.831 L 75.604,51.831 L 68.547,57.593 Z" stroke-width="0" fill="#980d0d" stroke-linejoin="round" marker-start="none" marker-end="none" stroke-miterlimit="79.8403193612775"/>
     <path d="M 54.684,49.171 L 54.684,44.133 L 60.003,44.133 L 60.003,49.171 L 54.684,49.171 Z" stroke-width="0" fill="#ffffff" stroke-linejoin="miter" marker-start="none" marker-end="none" stroke-miterlimit="79.8403193612775"/>
     <path d="M 61.167,49.169 L 61.167,44.131 L 66.486,44.131 L 66.486,49.169 L 61.167,49.169 Z" stroke-width="0" fill="#ffffff" stroke-linejoin="miter" marker-start="none" marker-end="none" stroke-miterlimit="79.8403193612775"/>
     <path d="M 67.639,49.169 L 67.639,44.131 L 72.959,44.131 L 72.959,49.169 L 67.639,49.169 Z" stroke-width="0" fill="#ffffff" stroke-linejoin="miter" marker-start="none" marker-end="none" stroke-miterlimit="79.8403193612775"/>
     <path d="M 44.847,49.171 L 44.847,44.133 L 50.166,44.133 L 50.166,49.171 L 44.847,49.171 Z" stroke-width="0" fill="#ffffff" stroke-linejoin="miter" marker-start="none" marker-end="none" stroke-miterlimit="79.8403193612775"/>
     <path d="M 58.873,38.817 L 58.873,30.571 L 71.193,30.571 L 71.193,38.817 L 58.873,38.817 Z" stroke-width="0" fill="#def3f6" stroke-linejoin="miter" marker-start="none" marker-end="none" stroke-miterlimit="79.8403193612775"/>
     <path d="M 51.991,38.817 L 51.991,33.779 L 57.311,33.779 L 57.311,38.817 L 51.991,38.817 Z" stroke-width="0" fill="#def3f6" stroke-linejoin="miter" marker-start="none" marker-end="none" stroke-miterlimit="79.8403193612775"/>
     <path d="M 18.669,45.525 L 18.669,38.446 L 23.988,38.446 L 23.988,45.525 L 18.669,45.525 Z" stroke-width="0" fill="#e6f5f7" stroke-linejoin="miter" marker-start="none" marker-end="none" stroke-miterlimit="79.8403193612775"/>
     <path d="M 30.457,45.524 L 30.457,38.445 L 35.776,38.445 L 35.776,45.524 L 30.457,45.524 Z" stroke-width="0" fill="#e6f5f7" stroke-linejoin="miter" marker-start="none" marker-end="none" stroke-miterlimit="79.8403193612775"/>
     <path d="M 58.873,38.817 L 58.873,37.863 L 71.193,37.863 L 71.193,38.817 L 58.873,38.817 Z" stroke-width="0" fill="#d0dee0" stroke-linejoin="miter" marker-start="none" marker-end="none" stroke-miterlimit="79.8403193612775"/>
     <path d="M 52.045,38.816 L 52.045,37.861 L 57.367,37.861 L 57.367,38.816 L 52.045,38.816 Z" stroke-width="0" fill="#d0dee0" stroke-linejoin="miter" marker-start="none" marker-end="none" stroke-miterlimit="79.8403193612775"/>
     <path d="M 54.684,49.171 L 54.684,48.154 L 60.003,48.154 L 60.003,49.171 L 54.684,49.171 Z" stroke-width="0" fill="#edf7f9" stroke-linejoin="miter" marker-start="none" marker-end="none" stroke-miterlimit="79.8403193612775"/>
     <path d="M 61.167,49.171 L 61.167,48.154 L 66.486,48.154 L 66.486,49.171 L 61.167,49.171 Z" stroke-width="0" fill="#edf7f9" stroke-linejoin="miter" marker-start="none" marker-end="none" stroke-miterlimit="79.8403193612775"/>
     <path d="M 67.639,49.171 L 67.639,48.154 L 72.959,48.154 L 72.959,49.171 L 67.639,49.171 Z" stroke-width="0" fill="#edf7f9" stroke-linejoin="miter" marker-start="none" marker-end="none" stroke-miterlimit="79.8403193612775"/>
     <path d="M 44.847,49.171 L 44.847,48.154 L 50.166,48.154 L 50.166,49.171 L 44.847,49.171 Z" stroke-width="0" fill="#edf7f9" stroke-linejoin="miter" marker-start="none" marker-end="none" stroke-miterlimit="79.8403193612775"/>
     <path d="M 18.669,45.524 L 18.669,44.455 L 23.988,44.455 L 23.988,45.524 L 18.669,45.524 Z" stroke-width="0" fill="#dbe8ea" stroke-linejoin="miter" marker-start="none" marker-end="none" stroke-miterlimit="79.8403193612775"/>
     <path d="M 30.457,45.524 L 30.457,44.455 L 35.776,44.455 L 35.776,45.524 L 30.457,45.524 Z" stroke-width="0" fill="#dbe8ea" stroke-linejoin="miter" marker-start="none" marker-end="none" stroke-miterlimit="79.8403193612775"/>
    </g>
   </g>
  </g>
 </g>
</svg>
