<?xml version="1.0" standalone="no"?>
<!DOCTYPE svg PUBLIC "-//W3C//DTD SVG 1.1//EN" "http://www.w3.org/Graphics/SVG/1.1/DTD/svg11.dtd">
<!--Generator: Xara Designer (www.xara.com), SVG filter version: 3.0.2.3-->
<svg stroke-width="0.501" stroke-linejoin="bevel" fill-rule="evenodd" xmlns:xlink="http://www.w3.org/1999/xlink" xmlns="http://www.w3.org/2000/svg" version="1.1" overflow="visible" width="112.5pt" height="30pt" viewBox="0 0 112.5 30">
 <defs>
  <marker id="DefaultArrow2" markerUnits="strokeWidth" viewBox="0 0 1 1" markerWidth="1" markerHeight="1" overflow="visible" orient="auto">
   <!-- REF_ARROW_STRAIGHT (-2) -->
   <g transform="scale(0.0092592592)">
    <!-- 1/108 -->
    <path d="M -9 54 L -9 -54 L 117 0 z"/>
   </g>
  </marker>
  <marker id="DefaultArrow3" markerUnits="strokeWidth" viewBox="0 0 1 1" markerWidth="1" markerHeight="1" overflow="visible" orient="auto">
   <!-- REF_ARROW_ANGLED -->
   <g transform="scale(0.0092592592)">
    <path d="M -27 54 L -9 0 L -27 -54 L 135 0 z"/>
   </g>
  </marker>
  <marker id="DefaultArrow4" markerUnits="strokeWidth" viewBox="0 0 1 1" markerWidth="1" markerHeight="1" overflow="visible" orient="auto">
   <!-- REF_ARROW_ROUNDED -->
   <g transform="scale(0.0092592592)">
    <path d="M -9,0 L -9,-45 C -9,-51.708 2.808,-56.580 9,-54 L 117,-9 C 120.916,-7.369 126.000,-4.242 126,0 C 126,4.242 120.916,7.369 117,9 L 9,54 C 2.808,56.580 -9,51.708 -9,45 z"/>
   </g>
  </marker>
  <marker id="DefaultArrow5" markerUnits="strokeWidth" viewBox="0 0 1 1" markerWidth="1" markerHeight="1" overflow="visible" orient="auto">
   <!-- REF_ARROW_SPOT -->
   <g transform="scale(0.0092592592)">
    <path d="M -54, 0 C -54,29.807 -29.807,54 0,54 C 29.807,54 54,29.807 54,0 C 54,-29.807 29.807,-54 0,-54 C -29.807,-54 -54,-29.807 -54,0 z"/>
   </g>
  </marker>
  <marker id="DefaultArrow6" markerUnits="strokeWidth" viewBox="0 0 1 1" markerWidth="1" markerHeight="1" overflow="visible" orient="auto">
   <!-- REF_ARROW_DIAMOND -->
   <g transform="scale(0.0092592592)">
    <path d="M -63,0 L 0,63 L 63,0 L 0,-63 z"/>
   </g>
  </marker>
  <marker id="DefaultArrow7" markerUnits="strokeWidth" viewBox="0 0 1 1" markerWidth="1" markerHeight="1" overflow="visible" orient="auto">
   <!-- REF_ARROW_FEATHER -->
   <g transform="scale(0.0092592592)">
    <path d="M 18,-54 L 108,-54 L 63,0 L 108,54 L 18, 54 L -36,0 z"/>
   </g>
  </marker>
  <marker id="DefaultArrow8" markerUnits="strokeWidth" viewBox="0 0 1 1" markerWidth="1" markerHeight="1" overflow="visible" orient="auto">
   <!-- REF_ARROW_FEATHER2 -->
   <g transform="scale(0.0092592592)">
    <path d="M -36,0 L 18,-54 L 54,-54 L 18,-18 L 27,-18 L 63,-54 L 99,-54 L 63,-18 L 72,-18 L 108,-54 L 144,-54 L 90,0 L 144,54 L 108,54 L 72,18 L 63,18 L 99,54 L 63,54 L 27,18 L 18,18 L 54,54 L 18,54 z"/>
   </g>
  </marker>
  <marker id="DefaultArrow9" markerUnits="strokeWidth" viewBox="0 0 1 1" markerWidth="1" markerHeight="1" overflow="visible" orient="auto">
   <!-- REF_ARROW_HOLLOWDIAMOND -->
   <g transform="scale(0.0092592592)">
    <path d="M 0,45 L -45,0 L 0, -45 L 45, 0 z M 0, 63 L-63, 0 L 0, -63 L 63, 0 z"/>
   </g>
  </marker>
  <filter id="StainedFilter">
   <feBlend mode="multiply" in2="BackgroundImage" in="SourceGraphic" result="blend"/>
   <feComposite in="blend" in2="SourceAlpha" operator="in" result="comp"/>
  </filter>
  <filter id="BleachFilter">
   <feBlend mode="screen" in2="BackgroundImage" in="SourceGraphic" result="blend"/>
   <feComposite in="blend" in2="SourceAlpha" operator="in" result="comp"/>
  </filter>
  <filter id="InvertTransparencyBitmapFilter">
   <feComponentTransfer>
    <feFuncR type="gamma" amplitude="1.055" exponent=".416666666" offset="-0.055"/>
    <feFuncG type="gamma" amplitude="1.055" exponent=".416666666" offset="-0.055"/>
    <feFuncB type="gamma" amplitude="1.055" exponent=".416666666" offset="-0.055"/>
   </feComponentTransfer>
   <feComponentTransfer>
    <feFuncR type="linear" slope="-1" intercept="1"/>
    <feFuncG type="linear" slope="-1" intercept="1"/>
    <feFuncB type="linear" slope="-1" intercept="1"/>
    <feFuncA type="linear" slope="1" intercept="0"/>
   </feComponentTransfer>
   <feComponentTransfer>
    <feFuncR type="gamma" amplitude="1" exponent="2.4" offset="0"/>
    <feFuncG type="gamma" amplitude="1" exponent="2.4" offset="0"/>
    <feFuncB type="gamma" amplitude="1" exponent="2.4" offset="0"/>
   </feComponentTransfer>
  </filter>
 </defs>
 <g id="Document" fill="none" stroke="black" font-family="Times New Roman" font-size="16" transform="scale(1 -1)">
  <g id="Spread" transform="translate(0 -30)">
   <g id="Layer 1">
    <g id="Group" fill="#cccccc" fill-rule="nonzero" stroke="none">
     <g id="Group_1" stroke-width="0" stroke-miterlimit="79.8403193612775">
      <path d="M 82.053,0.291 L 82.053,7.13 L 83.218,7.13 L 83.218,0.291 L 82.053,0.291 Z" marker-start="none" marker-end="none"/>
      <path d="M 84.692,0.291 L 84.692,5.225 L 85.82,5.225 L 85.82,4.928 C 85.82,4.928 86.522,5.343 87.144,5.343 C 88.517,5.343 88.864,4.532 88.864,2.872 L 88.864,0.291 L 87.737,0.291 L 87.737,2.902 C 87.737,3.84 87.618,4.324 86.887,4.324 C 86.334,4.324 85.82,4.088 85.82,4.088 L 85.82,0.291 L 84.692,0.291 Z" marker-start="none" marker-end="none"/>
      <path d="M 90.91,0.291 L 89.654,5.225 L 90.831,5.225 L 91.77,1.231 L 92.066,1.231 L 93.025,5.225 L 94.172,5.225 L 92.906,0.291 L 90.91,0.291 Z" marker-start="none" marker-end="none"/>
      <path d="M 94.695,2.704 C 94.695,4.502 95.467,5.343 96.841,5.343 C 98.244,5.343 98.946,4.622 98.946,3.089 L 98.868,2.279 L 95.833,2.279 C 95.843,1.557 96.139,1.211 96.94,1.211 C 97.721,1.211 98.758,1.301 98.758,1.301 L 98.779,0.421 C 98.779,0.421 97.653,0.183 96.773,0.183 C 95.279,0.183 94.695,0.964 94.695,2.704 Z M 96.841,4.335 C 96.139,4.335 95.833,3.979 95.833,3.158 L 97.83,3.158 C 97.83,4.019 97.543,4.335 96.841,4.335 Z" marker-start="none" marker-end="none"/>
      <path d="M 99.887,0.401 L 99.925,1.359 C 99.925,1.359 101.122,1.201 101.625,1.201 C 102.317,1.201 102.575,1.34 102.575,1.735 C 102.575,2.051 102.416,2.141 101.625,2.268 C 100.361,2.477 99.807,2.753 99.807,3.782 C 99.807,4.908 100.686,5.343 101.676,5.343 C 102.397,5.343 103.553,5.116 103.553,5.116 L 103.533,4.157 C 103.533,4.157 102.347,4.315 101.754,4.315 C 101.171,4.315 100.934,4.187 100.934,3.81 C 100.934,3.505 101.141,3.426 101.962,3.297 C 103.267,3.089 103.701,2.742 103.701,1.765 C 103.701,0.608 102.951,0.183 101.734,0.183 C 101.032,0.183 99.887,0.401 99.887,0.401 Z" marker-start="none" marker-end="none"/>
      <path d="M 105.007,2.031 L 105.007,4.206 L 104.384,4.206 L 104.384,5.225 L 105.007,5.225 L 105.007,6.657 L 106.134,6.657 L 106.134,5.225 L 107.468,5.225 L 107.468,4.206 L 106.134,4.206 L 106.134,2.19 C 106.134,1.507 106.152,1.251 106.648,1.251 C 106.924,1.251 107.448,1.281 107.448,1.281 L 107.498,0.312 C 107.498,0.312 106.836,0.174 106.49,0.174 C 105.352,0.174 105.007,0.608 105.007,2.031 Z" marker-start="none" marker-end="none"/>
      <path d="M 108.269,0.401 L 108.309,1.359 C 108.309,1.359 109.504,1.201 110.009,1.201 C 110.701,1.201 110.957,1.34 110.957,1.735 C 110.957,2.051 110.799,2.141 110.009,2.268 C 108.744,2.477 108.19,2.753 108.19,3.782 C 108.19,4.908 109.07,5.343 110.058,5.343 C 110.779,5.343 111.936,5.116 111.936,5.116 L 111.917,4.157 C 111.917,4.157 110.73,4.315 110.138,4.315 C 109.554,4.315 109.317,4.187 109.317,3.81 C 109.317,3.505 109.524,3.426 110.345,3.297 C 111.649,3.089 112.084,2.742 112.084,1.765 C 112.084,0.608 111.333,0.183 110.117,0.183 C 109.415,0.183 108.269,0.401 108.269,0.401 Z" marker-start="none" marker-end="none"/>
     </g>
     <g id="Group_2">
      <path d="M 101.839,27.04 C 101.839,26.873 101.818,26.718 101.768,26.583 C 101.684,26.47 101.636,26.329 101.508,26.237 C 101.39,26.164 101.302,26.073 101.177,26.017 C 101.024,25.978 100.877,25.936 100.722,25.936 L 99.123,25.936 L 99.123,29.826 L 100.564,29.826 C 100.946,29.826 101.228,29.733 101.452,29.539 C 101.654,29.357 101.731,29.109 101.731,28.806 C 101.731,28.742 101.721,28.683 101.702,28.595 C 101.69,28.523 101.671,28.443 101.654,28.375 C 101.627,28.296 101.546,28.232 101.506,28.173 C 101.447,28.098 101.356,28.048 101.267,27.983 L 101.278,27.975 C 101.378,27.945 101.497,27.895 101.546,27.806 C 101.654,27.74 101.682,27.649 101.731,27.577 C 101.804,27.482 101.818,27.409 101.82,27.301 C 101.83,27.198 101.839,27.123 101.839,27.04 Z M 101.039,28.742 C 101.039,28.89 101.021,29.006 100.896,29.109 C 100.832,29.205 100.687,29.243 100.445,29.243 L 99.768,29.243 L 99.768,28.241 L 100.551,28.241 C 100.696,28.241 100.794,28.28 100.888,28.378 C 101.019,28.481 101.039,28.59 101.039,28.742 Z M 101.181,27.107 C 101.181,27.263 101.105,27.397 101.024,27.494 C 100.905,27.623 100.752,27.663 100.561,27.663 L 99.768,27.663 L 99.768,26.518 L 100.561,26.518 C 100.695,26.518 100.752,26.54 100.868,26.559 C 100.909,26.603 101.012,26.642 101.035,26.696 C 101.067,26.736 101.112,26.797 101.146,26.866 C 101.172,26.952 101.181,27.016 101.181,27.107 L 101.181,27.107 Z" marker-start="none" marker-end="none"/>
      <path d="M 108.582,27.04 C 108.582,26.873 108.566,26.718 108.505,26.583 C 108.427,26.47 108.375,26.329 108.254,26.237 C 108.134,26.164 108.038,26.073 107.914,26.017 C 107.771,25.978 107.621,25.936 107.468,25.936 L 105.861,25.936 L 105.861,29.826 L 107.309,29.826 C 107.683,29.826 107.972,29.733 108.188,29.539 C 108.397,29.357 108.467,29.109 108.467,28.806 C 108.467,28.742 108.457,28.683 108.44,28.595 C 108.434,28.523 108.412,28.443 108.4,28.375 C 108.366,28.296 108.283,28.232 108.251,28.173 C 108.185,28.098 108.097,28.048 108.002,27.983 L 108.014,27.975 C 108.122,27.945 108.243,27.895 108.288,27.806 C 108.395,27.74 108.425,27.649 108.467,27.577 C 108.545,27.482 108.562,27.409 108.566,27.301 C 108.575,27.198 108.582,27.123 108.582,27.04 Z M 107.784,28.742 C 107.784,28.89 107.764,29.006 107.639,29.109 C 107.567,29.205 107.425,29.243 107.186,29.243 L 106.513,29.243 L 106.513,28.241 L 107.29,28.241 C 107.436,28.241 107.531,28.28 107.633,28.378 C 107.76,28.481 107.784,28.59 107.784,28.742 Z M 107.921,27.107 C 107.921,27.263 107.842,27.397 107.771,27.494 C 107.65,27.623 107.494,27.663 107.308,27.663 L 106.513,27.663 L 106.513,26.518 L 107.308,26.518 C 107.431,26.518 107.498,26.54 107.612,26.559 C 107.655,26.603 107.748,26.642 107.782,26.696 C 107.81,26.736 107.85,26.797 107.883,26.866 C 107.912,26.952 107.921,27.016 107.921,27.107 L 107.921,27.107 Z" marker-start="none" marker-end="none"/>
      <path d="M 102.813,29.826 L 102.129,29.826 L 103.232,25.936 L 104.17,25.936 L 105.272,29.826 L 104.573,29.826 L 103.701,26.58 L 102.813,29.826 Z" marker-start="none" marker-end="none"/>
      <path d="M 111.72,25.936 L 112.454,25.936 L 111.335,29.826 L 110.401,29.826 L 109.281,25.936 L 109.98,25.936 L 110.219,26.809 L 108.86,26.809 L 109.015,27.415 L 110.378,27.415 L 110.869,29.184 L 111.72,25.936 Z" marker-start="none" marker-end="none"/>
     </g>
     <g id="Group_3">
      <path d="M 96.894,21.3 L 96.894,17.676 L 101.021,17.676 L 101.021,15.689 L 96.894,15.689 L 96.894,12.063 L 101.021,12.063 L 102.012,10.074 L 94.668,10.074 L 94.668,23.287 L 102.012,23.287 L 101.021,21.3 L 96.894,21.3 Z" marker-start="none" marker-end="none"/>
      <path d="M 91.818,23.286 L 91.818,10.073 L 88.708,10.073 L 84.202,19.949 L 84.202,10.073 L 82.018,10.073 L 82.018,23.286 L 84.982,23.286 L 89.617,13.156 L 89.617,23.286 L 91.818,23.286 Z" marker-start="none" marker-end="none"/>
      <path d="M 112.499,23.286 L 103.648,23.286 L 104.605,21.299 L 106.943,21.299 L 106.943,10.073 L 109.143,10.073 L 109.143,21.299 L 111.48,21.299 L 112.499,23.286 Z" marker-start="none" marker-end="none"/>
      <path d="M 50.792,23.286 L 41.957,23.286 L 42.943,21.299 L 45.283,21.299 L 45.283,10.073 L 47.484,10.073 L 47.484,21.299 L 49.822,21.299 L 50.792,23.286 Z" marker-start="none" marker-end="none"/>
      <path d="M 70.031,23.286 L 61.159,23.286 L 62.111,21.299 L 64.447,21.299 L 64.447,10.073 L 66.673,10.073 L 66.673,21.299 L 69.015,21.299 L 70.031,23.286 Z" marker-start="none" marker-end="none"/>
      <path d="M 79.336,13.377 C 79.292,13.086 79.229,12.796 79.219,12.546 C 78.945,11.528 78.553,10.556 77.513,10.126 C 77.189,9.967 76.735,9.882 76.392,9.815 C 75.952,9.762 75.486,9.744 75.019,9.762 C 73.931,9.795 72.781,9.962 71.675,10.209 L 73.148,12.133 C 73.904,12.023 74.919,11.941 75.03,11.928 C 75.505,11.873 76.071,11.896 76.442,12.153 C 77.511,12.856 77.279,15.041 76.034,15.401 C 74.549,15.816 73.364,15.981 72.604,16.509 C 71.903,16.983 71.53,17.841 71.436,18.655 C 71.311,19.473 71.289,20.41 71.591,21.199 C 71.776,21.882 72.112,22.578 72.686,22.982 C 73.572,23.579 74.706,23.611 75.661,23.594 C 76.73,23.541 77.925,23.372 79.029,23.136 L 77.513,21.204 C 76.801,21.314 75.786,21.414 75.642,21.421 C 75.174,21.459 74.706,21.47 74.345,21.258 C 74.254,21.204 74.238,21.184 74.204,21.158 C 73.201,20.401 73.4,18.309 74.671,17.943 C 76.118,17.532 77.348,17.372 78.098,16.825 C 79.16,16.113 79.402,14.646 79.336,13.377 L 79.336,13.377 Z" marker-start="none" marker-end="none"/>
      <path d="M 40.715,13.377 C 40.672,13.086 40.64,12.796 40.595,12.546 C 40.341,11.528 39.933,10.556 38.92,10.126 C 38.563,9.967 38.143,9.882 37.77,9.815 C 37.351,9.762 36.884,9.744 36.399,9.762 C 35.345,9.795 34.163,9.962 33.057,10.209 L 34.546,12.133 C 35.281,12.023 36.307,11.941 36.44,11.928 C 36.913,11.873 37.448,11.896 37.846,12.153 C 38.907,12.856 38.661,15.041 37.416,15.401 C 35.936,15.816 34.752,15.981 33.988,16.509 C 33.293,16.983 32.909,17.841 32.826,18.655 C 32.712,19.473 32.703,20.41 32.978,21.199 C 33.181,21.882 33.501,22.578 34.1,22.982 C 34.951,23.579 36.096,23.611 37.069,23.594 C 38.12,23.541 39.307,23.372 40.412,23.136 L 38.92,21.204 C 38.184,21.314 37.161,21.414 37.03,21.421 C 36.577,21.459 36.104,21.47 35.725,21.258 C 35.667,21.204 35.626,21.184 35.584,21.158 C 34.591,20.401 34.783,18.309 36.048,17.943 C 37.53,17.532 38.722,17.372 39.477,16.825 C 40.544,16.113 40.806,14.646 40.715,13.377 L 40.715,13.377 Z" marker-start="none" marker-end="none"/>
      <path d="M 58.145,13.031 L 58.957,10.074 L 61.318,10.074 L 57.574,23.287 L 54.357,23.287 L 50.598,10.074 L 53.01,10.074 L 53.818,13.031 L 49.096,13.031 L 49.639,15.018 L 54.331,15.018 L 55.977,21.104 L 57.598,15.018 L 58.145,13.031 Z" marker-start="none" marker-end="none"/>
     </g>
     <g id="Group_4">
      <path d="M 17.12,16.986 C 15.866,20.276 14.945,22.293 13.273,22.293 C 11.576,22.293 10.679,20.276 9.392,16.986 C 8.094,13.574 6.502,9.414 2.5,8.791 C 4.902,5.451 8.842,3.27 13.273,3.27 C 17.698,3.27 21.636,5.451 24.043,8.791 C 20.028,9.414 18.442,13.574 17.12,16.986 L 17.12,16.986 Z" marker-start="none" marker-end="none"/>
      <path d="M 1.691,23.044 L 10.562,23.044 C 11.269,23.734 12.153,24.166 13.273,24.166 C 14.385,24.166 15.246,23.734 15.956,23.044 L 24.836,23.044 C 24.59,23.493 24.298,23.932 23.996,24.332 L 2.53,24.332 C 2.228,23.932 1.956,23.493 1.691,23.044 L 1.691,23.044 Z" marker-start="none" marker-end="none"/>
      <path d="M 17.28,21.259 L 25.677,21.259 C 25.513,21.674 25.321,22.088 25.142,22.486 L 16.492,22.486 C 16.781,22.123 17.04,21.703 17.28,21.259 L 17.28,21.259 Z" marker-start="none" marker-end="none"/>
      <path d="M 18.137,19.48 L 26.207,19.48 C 26.11,19.874 26.011,20.263 25.883,20.64 L 17.611,20.64 C 17.816,20.266 17.976,19.875 18.137,19.48 L 18.137,19.48 Z" marker-start="none" marker-end="none"/>
      <path d="M 13.273,29.813 C 11.113,29.813 9.098,29.318 7.312,28.409 L 19.223,28.409 C 17.428,29.318 15.402,29.813 13.273,29.813 L 13.273,29.813 Z" marker-start="none" marker-end="none"/>
      <path d="M 6.639,28.037 C 5.921,27.628 5.256,27.147 4.635,26.619 L 21.886,26.619 C 21.266,27.147 20.621,27.628 19.909,28.037 L 6.639,28.037 Z" marker-start="none" marker-end="none"/>
      <path d="M 2.911,24.829 L 23.618,24.829 C 23.237,25.31 22.818,25.763 22.372,26.197 L 4.16,26.197 C 3.709,25.763 3.299,25.31 2.911,24.829 L 2.911,24.829 Z" marker-start="none" marker-end="none"/>
      <path d="M 6.618,15.08 L 0.085,15.08 C 0.116,14.755 0.17,14.425 0.217,14.102 L 6.141,14.102 C 6.315,14.418 6.472,14.75 6.618,15.08 L 6.618,15.08 Z" marker-start="none" marker-end="none"/>
      <path d="M 10.044,22.486 L 1.403,22.486 C 1.202,22.088 1.029,21.674 0.868,21.259 L 9.235,21.259 C 9.472,21.703 9.764,22.124 10.044,22.486 L 10.044,22.486 Z" marker-start="none" marker-end="none"/>
      <path d="M 21.557,12.319 L 25.849,12.319 C 25.938,12.616 26.025,12.925 26.106,13.238 L 20.873,13.238 C 21.096,12.91 21.323,12.61 21.557,12.319 L 21.557,12.319 Z" marker-start="none" marker-end="none"/>
      <path d="M 8.102,18.783 L 0.187,18.783 C 0.124,18.423 0.084,18.053 0.046,17.69 L 7.673,17.69 C 7.827,18.048 7.965,18.419 8.102,18.783 L 8.102,18.783 Z" marker-start="none" marker-end="none"/>
      <path d="M 7.373,16.937 L 0.011,16.937 C 0.004,16.799 0.001,16.676 0.001,16.542 C 0.001,16.319 0.012,16.119 0.021,15.895 L 6.972,15.895 C 7.123,16.238 7.252,16.596 7.373,16.937 L 7.373,16.937 Z" marker-start="none" marker-end="none"/>
      <path d="M 19.55,15.895 L 26.512,15.895 C 26.531,16.119 26.542,16.319 26.542,16.542 C 26.542,16.676 26.538,16.799 26.533,16.937 L 19.146,16.937 C 19.292,16.596 19.417,16.238 19.55,15.895 L 19.55,15.895 Z" marker-start="none" marker-end="none"/>
      <path d="M 20.39,14.102 L 26.317,14.102 C 26.371,14.425 26.409,14.756 26.461,15.081 L 19.921,15.081 C 20.072,14.75 20.229,14.418 20.39,14.102 L 20.39,14.102 Z" marker-start="none" marker-end="none"/>
      <path d="M 18.845,17.69 L 26.48,17.69 C 26.461,18.052 26.402,18.422 26.335,18.784 L 18.439,18.784 C 18.581,18.419 18.711,18.048 18.845,17.69 L 18.845,17.69 Z" marker-start="none" marker-end="none"/>
      <path d="M 5.649,13.238 L 0.421,13.238 C 0.499,12.925 0.587,12.616 0.681,12.319 L 4.979,12.319 C 5.22,12.61 5.431,12.91 5.649,13.238 L 5.649,13.238 Z" marker-start="none" marker-end="none"/>
      <path d="M 8.921,20.64 L 0.648,20.64 C 0.516,20.263 0.416,19.874 0.332,19.48 L 8.376,19.48 C 8.538,19.875 8.725,20.266 8.921,20.64 L 8.921,20.64 Z" marker-start="none" marker-end="none"/>
      <path d="M 1.046,11.381 C 1.153,11.118 1.282,10.848 1.42,10.585 L 1.454,10.585 C 2.459,10.585 3.291,10.893 3.994,11.381 L 1.046,11.381 Z" marker-start="none" marker-end="none"/>
      <path d="M 25.478,11.381 L 22.554,11.381 C 23.254,10.893 24.067,10.585 25.074,10.585 L 25.121,10.585 C 25.242,10.848 25.381,11.118 25.478,11.381 L 25.478,11.381 Z" marker-start="none" marker-end="none"/>
     </g>
    </g>
   </g>
  </g>
 </g>
</svg>
