<?xml version="1.0" standalone="no"?>
<!DOCTYPE svg PUBLIC "-//W3C//DTD SVG 1.1//EN" "http://www.w3.org/Graphics/SVG/1.1/DTD/svg11.dtd">
<!--Generator: Xara Designer (www.xara.com), SVG filter version: 3.0.2.3-->
<svg stroke-width="0.501" stroke-linejoin="bevel" fill-rule="evenodd" xmlns:xlink="http://www.w3.org/1999/xlink" xmlns="http://www.w3.org/2000/svg" version="1.1" overflow="visible" width="210pt" height="60pt" viewBox="0 0 210 60">
 <defs>
  <marker id="DefaultArrow2" markerUnits="strokeWidth" viewBox="0 0 1 1" markerWidth="1" markerHeight="1" overflow="visible" orient="auto">
   <!-- REF_ARROW_STRAIGHT (-2) -->
   <g transform="scale(0.0092592592)">
    <!-- 1/108 -->
    <path d="M -9 54 L -9 -54 L 117 0 z"/>
   </g>
  </marker>
  <marker id="DefaultArrow3" markerUnits="strokeWidth" viewBox="0 0 1 1" markerWidth="1" markerHeight="1" overflow="visible" orient="auto">
   <!-- REF_ARROW_ANGLED -->
   <g transform="scale(0.0092592592)">
    <path d="M -27 54 L -9 0 L -27 -54 L 135 0 z"/>
   </g>
  </marker>
  <marker id="DefaultArrow4" markerUnits="strokeWidth" viewBox="0 0 1 1" markerWidth="1" markerHeight="1" overflow="visible" orient="auto">
   <!-- REF_ARROW_ROUNDED -->
   <g transform="scale(0.0092592592)">
    <path d="M -9,0 L -9,-45 C -9,-51.708 2.808,-56.580 9,-54 L 117,-9 C 120.916,-7.369 126.000,-4.242 126,0 C 126,4.242 120.916,7.369 117,9 L 9,54 C 2.808,56.580 -9,51.708 -9,45 z"/>
   </g>
  </marker>
  <marker id="DefaultArrow5" markerUnits="strokeWidth" viewBox="0 0 1 1" markerWidth="1" markerHeight="1" overflow="visible" orient="auto">
   <!-- REF_ARROW_SPOT -->
   <g transform="scale(0.0092592592)">
    <path d="M -54, 0 C -54,29.807 -29.807,54 0,54 C 29.807,54 54,29.807 54,0 C 54,-29.807 29.807,-54 0,-54 C -29.807,-54 -54,-29.807 -54,0 z"/>
   </g>
  </marker>
  <marker id="DefaultArrow6" markerUnits="strokeWidth" viewBox="0 0 1 1" markerWidth="1" markerHeight="1" overflow="visible" orient="auto">
   <!-- REF_ARROW_DIAMOND -->
   <g transform="scale(0.0092592592)">
    <path d="M -63,0 L 0,63 L 63,0 L 0,-63 z"/>
   </g>
  </marker>
  <marker id="DefaultArrow7" markerUnits="strokeWidth" viewBox="0 0 1 1" markerWidth="1" markerHeight="1" overflow="visible" orient="auto">
   <!-- REF_ARROW_FEATHER -->
   <g transform="scale(0.0092592592)">
    <path d="M 18,-54 L 108,-54 L 63,0 L 108,54 L 18, 54 L -36,0 z"/>
   </g>
  </marker>
  <marker id="DefaultArrow8" markerUnits="strokeWidth" viewBox="0 0 1 1" markerWidth="1" markerHeight="1" overflow="visible" orient="auto">
   <!-- REF_ARROW_FEATHER2 -->
   <g transform="scale(0.0092592592)">
    <path d="M -36,0 L 18,-54 L 54,-54 L 18,-18 L 27,-18 L 63,-54 L 99,-54 L 63,-18 L 72,-18 L 108,-54 L 144,-54 L 90,0 L 144,54 L 108,54 L 72,18 L 63,18 L 99,54 L 63,54 L 27,18 L 18,18 L 54,54 L 18,54 z"/>
   </g>
  </marker>
  <marker id="DefaultArrow9" markerUnits="strokeWidth" viewBox="0 0 1 1" markerWidth="1" markerHeight="1" overflow="visible" orient="auto">
   <!-- REF_ARROW_HOLLOWDIAMOND -->
   <g transform="scale(0.0092592592)">
    <path d="M 0,45 L -45,0 L 0, -45 L 45, 0 z M 0, 63 L-63, 0 L 0, -63 L 63, 0 z"/>
   </g>
  </marker>
  <filter id="StainedFilter">
   <feBlend mode="multiply" in2="BackgroundImage" in="SourceGraphic" result="blend"/>
   <feComposite in="blend" in2="SourceAlpha" operator="in" result="comp"/>
  </filter>
  <filter id="BleachFilter">
   <feBlend mode="screen" in2="BackgroundImage" in="SourceGraphic" result="blend"/>
   <feComposite in="blend" in2="SourceAlpha" operator="in" result="comp"/>
  </filter>
  <filter id="InvertTransparencyBitmapFilter">
   <feComponentTransfer>
    <feFuncR type="gamma" amplitude="1.055" exponent=".416666666" offset="-0.055"/>
    <feFuncG type="gamma" amplitude="1.055" exponent=".416666666" offset="-0.055"/>
    <feFuncB type="gamma" amplitude="1.055" exponent=".416666666" offset="-0.055"/>
   </feComponentTransfer>
   <feComponentTransfer>
    <feFuncR type="linear" slope="-1" intercept="1"/>
    <feFuncG type="linear" slope="-1" intercept="1"/>
    <feFuncB type="linear" slope="-1" intercept="1"/>
    <feFuncA type="linear" slope="1" intercept="0"/>
   </feComponentTransfer>
   <feComponentTransfer>
    <feFuncR type="gamma" amplitude="1" exponent="2.4" offset="0"/>
    <feFuncG type="gamma" amplitude="1" exponent="2.4" offset="0"/>
    <feFuncB type="gamma" amplitude="1" exponent="2.4" offset="0"/>
   </feComponentTransfer>
  </filter>
 </defs>
 <g id="Document" fill="none" stroke="black" font-family="Times New Roman" font-size="16" transform="scale(1 -1)">
  <g id="Spread" transform="translate(0 -60)">
   <g id="Layer 1">
    <g id="Group" fill="#ffffff" fill-rule="nonzero" stroke="none">
     <g id="Group_1" stroke-width="0" stroke-miterlimit="79.8403193612775">
      <path d="M 152.338,3.029 L 152.338,15.574 L 154.476,15.574 L 154.476,3.029 L 152.338,3.029 Z" marker-start="none" marker-end="none"/>
      <path d="M 157.18,3.029 L 157.18,12.08 L 159.248,12.08 L 159.248,11.536 C 159.248,11.536 160.536,12.296 161.678,12.296 C 164.198,12.296 164.834,10.808 164.834,7.762 L 164.834,3.029 L 162.765,3.029 L 162.765,7.816 C 162.765,9.539 162.548,10.428 161.206,10.428 C 160.19,10.428 159.248,9.994 159.248,9.994 L 159.248,3.029 L 157.18,3.029 Z" marker-start="none" marker-end="none"/>
      <path d="M 168.587,3.029 L 166.282,12.08 L 168.442,12.08 L 170.165,4.751 L 170.709,4.751 L 172.469,12.08 L 174.573,12.08 L 172.251,3.029 L 168.587,3.029 Z" marker-start="none" marker-end="none"/>
      <path d="M 175.533,7.453 C 175.533,10.755 176.947,12.296 179.469,12.296 C 182.044,12.296 183.332,10.973 183.332,8.162 L 183.185,6.673 L 177.617,6.673 C 177.637,5.35 178.181,4.714 179.65,4.714 C 181.083,4.714 182.987,4.88 182.987,4.88 L 183.025,3.265 C 183.025,3.265 180.958,2.83 179.342,2.83 C 176.603,2.83 175.533,4.262 175.533,7.453 Z M 179.469,10.446 C 178.181,10.446 177.617,9.794 177.617,8.288 L 181.283,8.288 C 181.283,9.867 180.757,10.446 179.469,10.446 Z" marker-start="none" marker-end="none"/>
      <path d="M 185.057,3.228 L 185.127,4.987 C 185.127,4.987 187.322,4.697 188.246,4.697 C 189.515,4.697 189.988,4.952 189.988,5.678 C 189.988,6.257 189.697,6.421 188.246,6.656 C 185.927,7.038 184.91,7.544 184.91,9.431 C 184.91,11.498 186.524,12.296 188.338,12.296 C 189.661,12.296 191.782,11.88 191.782,11.88 L 191.748,10.12 C 191.748,10.12 189.57,10.408 188.485,10.408 C 187.411,10.408 186.976,10.174 186.976,9.486 C 186.976,8.923 187.356,8.779 188.863,8.542 C 191.257,8.162 192.055,7.527 192.055,5.731 C 192.055,3.612 190.677,2.83 188.447,2.83 C 187.158,2.83 185.057,3.228 185.057,3.228 Z" marker-start="none" marker-end="none"/>
      <path d="M 194.451,6.221 L 194.451,10.21 L 193.307,10.21 L 193.307,12.08 L 194.451,12.08 L 194.451,14.708 L 196.517,14.708 L 196.517,12.08 L 198.964,12.08 L 198.964,10.21 L 196.517,10.21 L 196.517,6.508 C 196.517,5.26 196.551,4.788 197.46,4.788 C 197.968,4.788 198.929,4.843 198.929,4.843 L 199.02,3.065 C 199.02,3.065 197.806,2.812 197.169,2.812 C 195.083,2.812 194.451,3.612 194.451,6.221 Z" marker-start="none" marker-end="none"/>
      <path d="M 200.436,3.228 L 200.508,4.987 C 200.508,4.987 202.701,4.697 203.626,4.697 C 204.895,4.697 205.367,4.952 205.367,5.678 C 205.367,6.257 205.076,6.421 203.626,6.656 C 201.306,7.038 200.29,7.544 200.29,9.431 C 200.29,11.498 201.904,12.296 203.717,12.296 C 205.042,12.296 207.163,11.88 207.163,11.88 L 207.126,10.12 C 207.126,10.12 204.949,10.408 203.861,10.408 C 202.794,10.408 202.357,10.174 202.357,9.486 C 202.357,8.923 202.737,8.779 204.242,8.542 C 206.636,8.162 207.433,7.527 207.433,5.731 C 207.433,3.612 206.056,2.83 203.826,2.83 C 202.537,2.83 200.436,3.228 200.436,3.228 Z" marker-start="none" marker-end="none"/>
     </g>
     <g id="Group_2">
      <path d="M 179.566,41.571 L 179.566,34.922 L 187.138,34.922 L 187.138,31.278 L 179.566,31.278 L 179.566,24.623 L 187.138,24.623 L 188.955,20.975 L 175.484,20.975 L 175.484,45.216 L 188.955,45.216 L 187.138,41.571 L 179.566,41.571 Z" marker-start="none" marker-end="none"/>
      <path d="M 170.252,45.214 L 170.252,20.973 L 164.547,20.973 L 156.281,39.092 L 156.281,20.973 L 152.275,20.973 L 152.275,45.214 L 157.712,45.214 L 166.216,26.632 L 166.216,45.214 L 170.252,45.214 Z" marker-start="none" marker-end="none"/>
      <path d="M 208.196,45.214 L 191.956,45.214 L 193.713,41.57 L 198.002,41.57 L 198.002,20.973 L 202.038,20.973 L 202.038,41.57 L 206.327,41.57 L 208.196,45.214 Z" marker-start="none" marker-end="none"/>
      <path d="M 94.986,45.214 L 78.777,45.214 L 80.587,41.57 L 84.879,41.57 L 84.879,20.973 L 88.916,20.973 L 88.916,41.57 L 93.206,41.57 L 94.986,45.214 Z" marker-start="none" marker-end="none"/>
      <path d="M 130.282,45.214 L 114.005,45.214 L 115.752,41.57 L 120.038,41.57 L 120.038,20.973 L 124.121,20.973 L 124.121,41.57 L 128.418,41.57 L 130.282,45.214 Z" marker-start="none" marker-end="none"/>
      <path d="M 147.355,27.036 C 147.272,26.501 147.156,25.971 147.137,25.511 C 146.637,23.642 145.916,21.858 144.008,21.07 C 143.415,20.781 142.581,20.623 141.952,20.501 C 141.148,20.403 140.291,20.369 139.432,20.403 C 137.438,20.465 135.328,20.768 133.3,21.224 L 136.002,24.754 C 137.389,24.551 139.25,24.401 139.453,24.377 C 140.326,24.275 141.362,24.318 142.043,24.789 C 144.006,26.078 143.58,30.086 141.296,30.747 C 138.573,31.51 136.397,31.814 135.004,32.785 C 133.718,33.651 133.034,35.225 132.861,36.718 C 132.631,38.218 132.591,39.938 133.145,41.385 C 133.486,42.638 134.1,43.914 135.152,44.658 C 136.779,45.751 138.86,45.811 140.612,45.781 C 142.573,45.682 144.766,45.372 146.79,44.939 L 144.008,41.393 C 142.703,41.598 140.84,41.781 140.576,41.792 C 139.718,41.863 138.86,41.883 138.197,41.494 C 138.031,41.393 138.001,41.356 137.938,41.31 C 136.097,39.922 136.463,36.083 138.795,35.412 C 141.45,34.656 143.707,34.364 145.081,33.361 C 147.031,32.055 147.475,29.363 147.355,27.036 L 147.355,27.036 Z" marker-start="none" marker-end="none"/>
      <path d="M 76.499,27.036 C 76.42,26.501 76.361,25.971 76.279,25.511 C 75.815,23.642 75.064,21.858 73.207,21.07 C 72.55,20.781 71.78,20.623 71.095,20.501 C 70.327,20.403 69.468,20.369 68.581,20.403 C 66.648,20.465 64.48,20.768 62.449,21.224 L 65.181,24.754 C 66.528,24.551 68.41,24.401 68.656,24.377 C 69.523,24.275 70.505,24.318 71.236,24.789 C 73.183,26.078 72.729,30.086 70.447,30.747 C 67.732,31.51 65.558,31.814 64.157,32.785 C 62.884,33.651 62.179,35.225 62.024,36.718 C 61.818,38.218 61.801,39.938 62.303,41.385 C 62.677,42.638 63.264,43.914 64.363,44.658 C 65.924,45.751 68.024,45.811 69.808,45.781 C 71.738,45.682 73.915,45.372 75.943,44.939 L 73.207,41.393 C 71.855,41.598 69.978,41.781 69.738,41.792 C 68.908,41.863 68.039,41.883 67.345,41.494 C 67.237,41.393 67.162,41.356 67.086,41.31 C 65.263,39.922 65.616,36.083 67.936,35.412 C 70.656,34.656 72.843,34.364 74.226,33.361 C 76.185,32.055 76.668,29.363 76.499,27.036 L 76.499,27.036 Z" marker-start="none" marker-end="none"/>
      <path d="M 108.478,26.4 L 109.966,20.975 L 114.299,20.975 L 107.429,45.216 L 101.526,45.216 L 94.631,20.975 L 99.057,20.975 L 100.539,26.4 L 91.872,26.4 L 92.872,30.045 L 101.479,30.045 L 104.498,41.211 L 107.473,30.045 L 108.478,26.4 Z" marker-start="none" marker-end="none"/>
     </g>
     <g id="Group_3">
      <path d="M 33.209,33.656 C 30.911,39.692 29.221,43.392 26.154,43.392 C 23.041,43.392 21.394,39.692 19.033,33.656 C 16.651,27.396 13.732,19.764 6.389,18.622 C 10.795,12.494 18.023,8.494 26.154,8.494 C 34.272,8.494 41.496,12.494 45.913,18.622 C 38.545,19.764 35.638,27.396 33.209,33.656 L 33.209,33.656 Z" marker-start="none" marker-end="none"/>
      <path d="M 4.903,44.771 L 21.179,44.771 C 22.475,46.035 24.098,46.83 26.154,46.83 C 28.193,46.83 29.775,46.035 31.077,44.771 L 47.368,44.771 C 46.918,45.594 46.38,46.401 45.823,47.134 L 6.444,47.134 C 5.889,46.401 5.392,45.594 4.903,44.771 L 4.903,44.771 Z" marker-start="none" marker-end="none"/>
      <path d="M 33.504,41.495 L 48.909,41.495 C 48.611,42.258 48.257,43.015 47.928,43.745 L 32.059,43.745 C 32.59,43.08 33.064,42.311 33.504,41.495 L 33.504,41.495 Z" marker-start="none" marker-end="none"/>
      <path d="M 35.077,38.232 L 49.882,38.232 C 49.705,38.954 49.523,39.668 49.287,40.361 L 34.111,40.361 C 34.487,39.675 34.782,38.957 35.077,38.232 L 35.077,38.232 Z" marker-start="none" marker-end="none"/>
      <path d="M 26.154,57.19 C 22.189,57.19 18.494,56.28 15.218,54.613 L 37.069,54.613 C 33.776,56.28 30.059,57.19 26.154,57.19 L 26.154,57.19 Z" marker-start="none" marker-end="none"/>
      <path d="M 13.982,53.931 C 12.665,53.18 11.445,52.299 10.305,51.329 L 41.955,51.329 C 40.818,52.299 39.634,53.18 38.327,53.931 L 13.982,53.931 Z" marker-start="none" marker-end="none"/>
      <path d="M 7.143,48.046 L 45.132,48.046 C 44.433,48.926 43.665,49.76 42.846,50.554 L 9.435,50.554 C 8.607,49.76 7.854,48.926 7.143,48.046 L 7.143,48.046 Z" marker-start="none" marker-end="none"/>
      <path d="M 13.944,30.159 L 1.958,30.159 C 2.015,29.564 2.114,28.957 2.2,28.367 L 13.069,28.367 C 13.388,28.945 13.677,29.554 13.944,30.159 L 13.944,30.159 Z" marker-start="none" marker-end="none"/>
      <path d="M 20.23,43.745 L 4.375,43.745 C 4.006,43.015 3.69,42.258 3.394,41.495 L 18.745,41.495 C 19.179,42.311 19.716,43.082 20.23,43.745 L 20.23,43.745 Z" marker-start="none" marker-end="none"/>
      <path d="M 41.354,25.093 L 49.227,25.093 C 49.388,25.636 49.548,26.206 49.696,26.78 L 40.097,26.78 C 40.506,26.178 40.921,25.627 41.354,25.093 L 41.354,25.093 Z" marker-start="none" marker-end="none"/>
      <path d="M 16.666,36.954 L 2.146,36.954 C 2.031,36.293 1.958,35.612 1.886,34.945 L 15.879,34.945 C 16.162,35.605 16.417,36.285 16.666,36.954 L 16.666,36.954 Z" marker-start="none" marker-end="none"/>
      <path d="M 15.329,33.566 L 1.823,33.566 C 1.811,33.314 1.804,33.085 1.804,32.841 C 1.804,32.432 1.825,32.065 1.844,31.654 L 14.594,31.654 C 14.872,32.285 15.107,32.941 15.329,33.566 L 15.329,33.566 Z" marker-start="none" marker-end="none"/>
      <path d="M 37.667,31.654 L 50.443,31.654 C 50.478,32.063 50.498,32.432 50.498,32.841 C 50.498,33.085 50.491,33.314 50.481,33.566 L 36.928,33.566 C 37.197,32.941 37.426,32.285 37.667,31.654 L 37.667,31.654 Z" marker-start="none" marker-end="none"/>
      <path d="M 39.211,28.367 L 50.084,28.367 C 50.183,28.96 50.254,29.566 50.348,30.16 L 38.35,30.16 C 38.627,29.556 38.914,28.945 39.211,28.367 L 39.211,28.367 Z" marker-start="none" marker-end="none"/>
      <path d="M 36.374,34.945 L 50.384,34.945 C 50.348,35.612 50.239,36.293 50.118,36.954 L 35.632,36.954 C 35.893,36.285 36.13,35.605 36.374,34.945 L 36.374,34.945 Z" marker-start="none" marker-end="none"/>
      <path d="M 12.164,26.78 L 2.576,26.78 C 2.718,26.206 2.88,25.636 3.05,25.093 L 10.938,25.093 C 11.378,25.627 11.765,26.178 12.164,26.78 L 12.164,26.78 Z" marker-start="none" marker-end="none"/>
      <path d="M 18.169,40.361 L 2.991,40.361 C 2.749,39.668 2.566,38.954 2.41,38.232 L 17.17,38.232 C 17.466,38.957 17.81,39.675 18.169,40.361 L 18.169,40.361 Z" marker-start="none" marker-end="none"/>
      <path d="M 3.719,23.373 C 3.918,22.891 4.155,22.394 4.411,21.913 L 4.47,21.913 C 6.313,21.913 7.84,22.478 9.129,23.373 L 3.719,23.373 Z" marker-start="none" marker-end="none"/>
      <path d="M 48.546,23.373 L 43.18,23.373 C 44.465,22.478 45.954,21.913 47.803,21.913 L 47.891,21.913 C 48.111,22.394 48.366,22.891 48.546,23.373 L 48.546,23.373 Z" marker-start="none" marker-end="none"/>
     </g>
    </g>
   </g>
  </g>
 </g>
</svg>
