<?xml version="1.0" standalone="no"?>
<!DOCTYPE svg PUBLIC "-//W3C//DTD SVG 1.1//EN" "http://www.w3.org/Graphics/SVG/1.1/DTD/svg11.dtd">
<!--Generator: Xara Designer (www.xara.com), SVG filter version: 3.0.2.3-->
<svg stroke-width="0.501" stroke-linejoin="bevel" fill-rule="evenodd" xmlns:xlink="http://www.w3.org/1999/xlink" xmlns="http://www.w3.org/2000/svg" version="1.1" overflow="visible" width="150pt" height="42.75pt" viewBox="0 0 150 42.75">
 <defs>
  <marker id="DefaultArrow2" markerUnits="strokeWidth" viewBox="0 0 1 1" markerWidth="1" markerHeight="1" overflow="visible" orient="auto">
   <!-- REF_ARROW_STRAIGHT (-2) -->
   <g transform="scale(0.0092592592)">
    <!-- 1/108 -->
    <path d="M -9 54 L -9 -54 L 117 0 z"/>
   </g>
  </marker>
  <marker id="DefaultArrow3" markerUnits="strokeWidth" viewBox="0 0 1 1" markerWidth="1" markerHeight="1" overflow="visible" orient="auto">
   <!-- REF_ARROW_ANGLED -->
   <g transform="scale(0.0092592592)">
    <path d="M -27 54 L -9 0 L -27 -54 L 135 0 z"/>
   </g>
  </marker>
  <marker id="DefaultArrow4" markerUnits="strokeWidth" viewBox="0 0 1 1" markerWidth="1" markerHeight="1" overflow="visible" orient="auto">
   <!-- REF_ARROW_ROUNDED -->
   <g transform="scale(0.0092592592)">
    <path d="M -9,0 L -9,-45 C -9,-51.708 2.808,-56.580 9,-54 L 117,-9 C 120.916,-7.369 126.000,-4.242 126,0 C 126,4.242 120.916,7.369 117,9 L 9,54 C 2.808,56.580 -9,51.708 -9,45 z"/>
   </g>
  </marker>
  <marker id="DefaultArrow5" markerUnits="strokeWidth" viewBox="0 0 1 1" markerWidth="1" markerHeight="1" overflow="visible" orient="auto">
   <!-- REF_ARROW_SPOT -->
   <g transform="scale(0.0092592592)">
    <path d="M -54, 0 C -54,29.807 -29.807,54 0,54 C 29.807,54 54,29.807 54,0 C 54,-29.807 29.807,-54 0,-54 C -29.807,-54 -54,-29.807 -54,0 z"/>
   </g>
  </marker>
  <marker id="DefaultArrow6" markerUnits="strokeWidth" viewBox="0 0 1 1" markerWidth="1" markerHeight="1" overflow="visible" orient="auto">
   <!-- REF_ARROW_DIAMOND -->
   <g transform="scale(0.0092592592)">
    <path d="M -63,0 L 0,63 L 63,0 L 0,-63 z"/>
   </g>
  </marker>
  <marker id="DefaultArrow7" markerUnits="strokeWidth" viewBox="0 0 1 1" markerWidth="1" markerHeight="1" overflow="visible" orient="auto">
   <!-- REF_ARROW_FEATHER -->
   <g transform="scale(0.0092592592)">
    <path d="M 18,-54 L 108,-54 L 63,0 L 108,54 L 18, 54 L -36,0 z"/>
   </g>
  </marker>
  <marker id="DefaultArrow8" markerUnits="strokeWidth" viewBox="0 0 1 1" markerWidth="1" markerHeight="1" overflow="visible" orient="auto">
   <!-- REF_ARROW_FEATHER2 -->
   <g transform="scale(0.0092592592)">
    <path d="M -36,0 L 18,-54 L 54,-54 L 18,-18 L 27,-18 L 63,-54 L 99,-54 L 63,-18 L 72,-18 L 108,-54 L 144,-54 L 90,0 L 144,54 L 108,54 L 72,18 L 63,18 L 99,54 L 63,54 L 27,18 L 18,18 L 54,54 L 18,54 z"/>
   </g>
  </marker>
  <marker id="DefaultArrow9" markerUnits="strokeWidth" viewBox="0 0 1 1" markerWidth="1" markerHeight="1" overflow="visible" orient="auto">
   <!-- REF_ARROW_HOLLOWDIAMOND -->
   <g transform="scale(0.0092592592)">
    <path d="M 0,45 L -45,0 L 0, -45 L 45, 0 z M 0, 63 L-63, 0 L 0, -63 L 63, 0 z"/>
   </g>
  </marker>
  <filter id="StainedFilter">
   <feBlend mode="multiply" in2="BackgroundImage" in="SourceGraphic" result="blend"/>
   <feComposite in="blend" in2="SourceAlpha" operator="in" result="comp"/>
  </filter>
  <filter id="BleachFilter">
   <feBlend mode="screen" in2="BackgroundImage" in="SourceGraphic" result="blend"/>
   <feComposite in="blend" in2="SourceAlpha" operator="in" result="comp"/>
  </filter>
  <filter id="InvertTransparencyBitmapFilter">
   <feComponentTransfer>
    <feFuncR type="gamma" amplitude="1.055" exponent=".416666666" offset="-0.055"/>
    <feFuncG type="gamma" amplitude="1.055" exponent=".416666666" offset="-0.055"/>
    <feFuncB type="gamma" amplitude="1.055" exponent=".416666666" offset="-0.055"/>
   </feComponentTransfer>
   <feComponentTransfer>
    <feFuncR type="linear" slope="-1" intercept="1"/>
    <feFuncG type="linear" slope="-1" intercept="1"/>
    <feFuncB type="linear" slope="-1" intercept="1"/>
    <feFuncA type="linear" slope="1" intercept="0"/>
   </feComponentTransfer>
   <feComponentTransfer>
    <feFuncR type="gamma" amplitude="1" exponent="2.4" offset="0"/>
    <feFuncG type="gamma" amplitude="1" exponent="2.4" offset="0"/>
    <feFuncB type="gamma" amplitude="1" exponent="2.4" offset="0"/>
   </feComponentTransfer>
  </filter>
 </defs>
 <g id="Document" fill="none" stroke="black" font-family="Times New Roman" font-size="16" transform="scale(1 -1)">
  <g id="Spread" transform="translate(0 -42.75)">
   <g id="Layer 1">
    <g id="Group" fill="#0a3e67" fill-rule="nonzero" stroke="none">
     <g id="Group_1" stroke-width="0" stroke-miterlimit="79.8403193612775">
      <path d="M 109.405,1.765 L 109.405,10.883 L 110.958,10.883 L 110.958,1.765 L 109.405,1.765 Z" marker-start="none" marker-end="none"/>
      <path d="M 112.923,1.765 L 112.923,8.341 L 114.426,8.341 L 114.426,7.947 C 114.426,7.947 115.363,8.499 116.192,8.499 C 118.024,8.499 118.486,7.419 118.486,5.205 L 118.486,1.765 L 116.982,1.765 L 116.982,5.244 C 116.982,6.496 116.824,7.141 115.849,7.141 C 115.112,7.141 114.426,6.826 114.426,6.826 L 114.426,1.765 L 112.923,1.765 Z" marker-start="none" marker-end="none"/>
      <path d="M 121.214,1.765 L 119.54,8.341 L 121.108,8.341 L 122.36,3.016 L 122.755,3.016 L 124.034,8.341 L 125.564,8.341 L 123.876,1.765 L 121.214,1.765 Z" marker-start="none" marker-end="none"/>
      <path d="M 126.261,4.98 C 126.261,7.379 127.289,8.499 129.122,8.499 C 130.993,8.499 131.929,7.537 131.929,5.494 L 131.824,4.413 L 127.777,4.413 C 127.791,3.451 128.186,2.989 129.254,2.989 C 130.296,2.989 131.678,3.109 131.678,3.109 L 131.705,1.936 C 131.705,1.936 130.203,1.618 129.03,1.618 C 127.039,1.618 126.261,2.661 126.261,4.98 Z M 129.122,7.155 C 128.186,7.155 127.777,6.681 127.777,5.586 L 130.441,5.586 C 130.441,6.734 130.059,7.155 129.122,7.155 Z" marker-start="none" marker-end="none"/>
      <path d="M 133.182,1.909 L 133.234,3.188 C 133.234,3.188 134.83,2.976 135.501,2.976 C 136.424,2.976 136.767,3.161 136.767,3.688 C 136.767,4.11 136.556,4.229 135.501,4.4 C 133.814,4.678 133.076,5.046 133.076,6.418 C 133.076,7.919 134.249,8.499 135.568,8.499 C 136.53,8.499 138.071,8.197 138.071,8.197 L 138.046,6.918 C 138.046,6.918 136.463,7.128 135.673,7.128 C 134.894,7.128 134.579,6.957 134.579,6.456 C 134.579,6.049 134.855,5.943 135.95,5.77 C 137.689,5.494 138.27,5.032 138.27,3.728 C 138.27,2.186 137.268,1.618 135.646,1.618 C 134.71,1.618 133.182,1.909 133.182,1.909 Z" marker-start="none" marker-end="none"/>
      <path d="M 140.009,4.085 L 140.009,6.983 L 139.179,6.983 L 139.179,8.341 L 140.009,8.341 L 140.009,10.252 L 141.512,10.252 L 141.512,8.341 L 143.291,8.341 L 143.291,6.983 L 141.512,6.983 L 141.512,4.294 C 141.512,3.386 141.538,3.042 142.198,3.042 C 142.566,3.042 143.265,3.082 143.265,3.082 L 143.332,1.791 C 143.332,1.791 142.448,1.607 141.985,1.607 C 140.47,1.607 140.009,2.186 140.009,4.085 Z" marker-start="none" marker-end="none"/>
      <path d="M 144.359,1.909 L 144.412,3.188 C 144.412,3.188 146.007,2.976 146.679,2.976 C 147.602,2.976 147.944,3.161 147.944,3.688 C 147.944,4.11 147.733,4.229 146.679,4.4 C 144.992,4.678 144.254,5.046 144.254,6.418 C 144.254,7.919 145.427,8.499 146.744,8.499 C 147.707,8.499 149.249,8.197 149.249,8.197 L 149.223,6.918 C 149.223,6.918 147.64,7.128 146.85,7.128 C 146.073,7.128 145.756,6.957 145.756,6.456 C 145.756,6.049 146.033,5.943 147.127,5.77 C 148.867,5.494 149.447,5.032 149.447,3.728 C 149.447,2.186 148.445,1.618 146.824,1.618 C 145.888,1.618 144.359,1.909 144.359,1.909 Z" marker-start="none" marker-end="none"/>
     </g>
     <g id="Group_2">
      <g id="Group_3">
       <path d="M 135.785,37.429 C 135.785,37.205 135.758,36.999 135.692,36.82 C 135.579,36.669 135.515,36.481 135.345,36.358 C 135.187,36.26 135.069,36.14 134.902,36.064 C 134.7,36.012 134.504,35.958 134.297,35.958 L 132.165,35.958 L 132.165,41.143 L 134.086,41.143 C 134.595,41.143 134.971,41.019 135.27,40.761 C 135.539,40.518 135.643,40.188 135.643,39.783 C 135.643,39.699 135.628,39.618 135.603,39.502 C 135.587,39.407 135.561,39.3 135.539,39.209 C 135.504,39.103 135.394,39.018 135.343,38.94 C 135.264,38.84 135.142,38.773 135.023,38.687 L 135.038,38.675 C 135.171,38.635 135.33,38.569 135.394,38.451 C 135.539,38.362 135.576,38.241 135.643,38.145 C 135.739,38.018 135.758,37.92 135.76,37.777 C 135.774,37.639 135.785,37.54 135.785,37.429 Z M 134.72,39.699 C 134.72,39.895 134.696,40.05 134.529,40.188 C 134.443,40.315 134.25,40.367 133.927,40.367 L 133.024,40.367 L 133.024,39.03 L 134.069,39.03 C 134.262,39.03 134.393,39.082 134.518,39.213 C 134.693,39.35 134.72,39.496 134.72,39.699 Z M 134.908,37.518 C 134.908,37.725 134.807,37.905 134.7,38.035 C 134.54,38.204 134.336,38.26 134.083,38.26 L 133.024,38.26 L 133.024,36.732 L 134.083,36.732 C 134.26,36.732 134.337,36.762 134.491,36.787 C 134.546,36.846 134.683,36.898 134.714,36.969 C 134.757,37.022 134.817,37.106 134.862,37.196 C 134.897,37.312 134.908,37.396 134.908,37.518 L 134.908,37.518 Z" marker-start="none" marker-end="none"/>
       <path d="M 144.777,37.429 C 144.777,37.205 144.756,36.999 144.674,36.82 C 144.569,36.669 144.501,36.481 144.339,36.358 C 144.179,36.26 144.052,36.14 143.887,36.064 C 143.696,36.012 143.495,35.958 143.292,35.958 L 141.149,35.958 L 141.149,41.143 L 143.08,41.143 C 143.578,41.143 143.963,41.019 144.252,40.761 C 144.53,40.518 144.624,40.188 144.624,39.783 C 144.624,39.699 144.61,39.618 144.588,39.502 C 144.579,39.407 144.55,39.3 144.533,39.209 C 144.489,39.103 144.38,39.018 144.334,38.94 C 144.246,38.84 144.13,38.773 144.003,38.687 L 144.019,38.675 C 144.164,38.635 144.324,38.569 144.385,38.451 C 144.528,38.362 144.567,38.241 144.624,38.145 C 144.728,38.018 144.75,37.92 144.756,37.777 C 144.767,37.639 144.777,37.54 144.777,37.429 Z M 143.712,39.699 C 143.712,39.895 143.686,40.05 143.519,40.188 C 143.423,40.315 143.233,40.367 142.916,40.367 L 142.019,40.367 L 142.019,39.03 L 143.054,39.03 C 143.249,39.03 143.374,39.082 143.511,39.213 C 143.681,39.35 143.712,39.496 143.712,39.699 Z M 143.897,37.518 C 143.897,37.725 143.789,37.905 143.696,38.035 C 143.534,38.204 143.326,38.26 143.078,38.26 L 142.019,38.26 L 142.019,36.732 L 143.078,36.732 C 143.243,36.732 143.332,36.762 143.483,36.787 C 143.54,36.846 143.665,36.898 143.71,36.969 C 143.748,37.022 143.801,37.106 143.844,37.196 C 143.884,37.312 143.897,37.396 143.897,37.518 L 143.897,37.518 Z" marker-start="none" marker-end="none"/>
       <path d="M 137.085,41.143 L 136.174,41.143 L 137.643,35.958 L 138.893,35.958 L 140.364,41.143 L 139.431,41.143 L 138.268,36.817 L 137.085,41.143 Z" marker-start="none" marker-end="none"/>
       <path d="M 148.961,35.958 L 149.938,35.958 L 148.448,41.143 L 147.203,41.143 L 145.708,35.958 L 146.64,35.958 L 146.961,37.121 L 145.147,37.121 L 145.353,37.929 L 147.171,37.929 L 147.826,40.287 L 148.961,35.958 Z" marker-start="none" marker-end="none"/>
      </g>
      <g id="Group_4">
       <path d="M 129.193,29.775 L 129.193,24.943 L 134.696,24.943 L 134.696,22.294 L 129.193,22.294 L 129.193,17.459 L 134.696,17.459 L 136.016,14.806 L 126.225,14.806 L 126.225,32.425 L 136.016,32.425 L 134.696,29.775 L 129.193,29.775 Z" marker-start="none" marker-end="none"/>
       <path d="M 122.424,32.423 L 122.424,14.805 L 118.278,14.805 L 112.27,27.974 L 112.27,14.805 L 109.357,14.805 L 109.357,32.423 L 113.309,32.423 L 119.49,18.918 L 119.49,32.423 L 122.424,32.423 Z" marker-start="none" marker-end="none"/>
       <path d="M 150,32.423 L 138.197,32.423 L 139.473,29.774 L 142.592,29.774 L 142.592,14.805 L 145.525,14.805 L 145.525,29.774 L 148.641,29.774 L 150,32.423 Z" marker-start="none" marker-end="none"/>
       <path d="M 67.723,32.423 L 55.942,32.423 L 57.257,29.774 L 60.377,29.774 L 60.377,14.805 L 63.312,14.805 L 63.312,29.774 L 66.43,29.774 L 67.723,32.423 Z" marker-start="none" marker-end="none"/>
       <path d="M 93.374,32.423 L 81.545,32.423 L 82.814,29.774 L 85.93,29.774 L 85.93,14.805 L 88.898,14.805 L 88.898,29.774 L 92.02,29.774 L 93.374,32.423 Z" marker-start="none" marker-end="none"/>
       <path d="M 105.782,19.212 C 105.722,18.824 105.639,18.437 105.626,18.103 C 105.261,16.745 104.738,15.45 103.351,14.876 C 102.92,14.666 102.313,14.551 101.856,14.462 C 101.271,14.391 100.648,14.367 100.025,14.391 C 98.575,14.436 97.042,14.656 95.567,14.988 L 97.532,17.553 C 98.54,17.406 99.892,17.297 100.04,17.28 C 100.673,17.206 101.428,17.237 101.922,17.579 C 103.349,18.517 103.038,21.43 101.38,21.909 C 99.4,22.463 97.819,22.684 96.807,23.388 C 95.872,24.02 95.374,25.163 95.247,26.249 C 95.082,27.339 95.052,28.589 95.455,29.641 C 95.703,30.55 96.149,31.479 96.915,32.018 C 98.097,32.814 99.608,32.857 100.882,32.835 C 102.307,32.763 103.9,32.538 105.373,32.223 L 103.351,29.646 C 102.402,29.795 101.048,29.928 100.856,29.937 C 100.232,29.988 99.608,30.002 99.126,29.719 C 99.005,29.646 98.984,29.62 98.94,29.586 C 97.601,28.577 97.867,25.787 99.562,25.299 C 101.491,24.751 103.13,24.537 104.13,23.807 C 105.547,22.859 105.869,20.904 105.782,19.212 L 105.782,19.212 Z" marker-start="none" marker-end="none"/>
       <path d="M 54.286,19.212 C 54.23,18.824 54.187,18.437 54.126,18.103 C 53.789,16.745 53.245,15.45 51.894,14.876 C 51.418,14.666 50.857,14.551 50.359,14.462 C 49.802,14.391 49.177,14.367 48.531,14.391 C 47.127,14.436 45.551,14.656 44.076,14.988 L 46.062,17.553 C 47.04,17.406 48.409,17.297 48.587,17.28 C 49.218,17.206 49.931,17.237 50.462,17.579 C 51.877,18.517 51.547,21.43 49.888,21.909 C 47.915,22.463 46.335,22.684 45.318,23.388 C 44.391,24.02 43.879,25.163 43.767,26.249 C 43.616,27.339 43.605,28.589 43.97,29.641 C 44.24,30.55 44.668,31.479 45.467,32.018 C 46.601,32.814 48.128,32.857 49.424,32.835 C 50.827,32.763 52.409,32.538 53.883,32.223 L 51.894,29.646 C 50.912,29.795 49.548,29.928 49.374,29.937 C 48.771,29.988 48.139,30.002 47.633,29.719 C 47.555,29.646 47.502,29.62 47.446,29.586 C 46.121,28.577 46.377,25.787 48.064,25.299 C 50.04,24.751 51.63,24.537 52.635,23.807 C 54.059,22.859 54.409,20.904 54.286,19.212 L 54.286,19.212 Z" marker-start="none" marker-end="none"/>
       <path d="M 77.527,18.75 L 78.609,14.806 L 81.758,14.806 L 76.765,32.425 L 72.476,32.425 L 67.465,14.806 L 70.681,14.806 L 71.758,18.75 L 65.46,18.75 L 66.186,21.398 L 72.441,21.398 L 74.636,29.514 L 76.799,21.398 L 77.527,18.75 Z" marker-start="none" marker-end="none"/>
      </g>
      <g id="Group_5">
       <path d="M 22.826,24.022 C 21.154,28.411 19.925,31.099 17.698,31.099 C 15.435,31.099 14.238,28.411 12.523,24.022 C 10.792,19.473 8.668,13.927 3.333,13.096 C 6.535,8.643 11.789,5.737 17.698,5.737 C 23.597,5.737 28.849,8.643 32.057,13.096 C 26.704,13.927 24.589,19.473 22.826,24.022 L 22.826,24.022 Z" marker-start="none" marker-end="none"/>
       <path d="M 2.255,32.102 L 14.083,32.102 C 15.024,33.02 16.204,33.597 17.698,33.597 C 19.18,33.597 20.328,33.02 21.275,32.102 L 33.115,32.102 C 32.788,32.699 32.397,33.286 31.993,33.819 L 3.373,33.819 C 2.97,33.286 2.608,32.699 2.255,32.102 L 2.255,32.102 Z" marker-start="none" marker-end="none"/>
       <path d="M 23.04,29.721 L 34.235,29.721 C 34.019,30.274 33.761,30.825 33.523,31.355 L 21.989,31.355 C 22.375,30.873 22.72,30.314 23.04,29.721 L 23.04,29.721 Z" marker-start="none" marker-end="none"/>
       <path d="M 24.183,27.348 L 34.942,27.348 C 34.813,27.875 34.682,28.393 34.511,28.895 L 23.481,28.895 C 23.754,28.397 23.968,27.875 24.183,27.348 L 24.183,27.348 Z" marker-start="none" marker-end="none"/>
       <path d="M 17.698,41.126 C 14.815,41.126 12.13,40.467 9.75,39.254 L 25.63,39.254 C 23.238,40.467 20.535,41.126 17.698,41.126 L 17.698,41.126 Z" marker-start="none" marker-end="none"/>
       <path d="M 8.851,38.758 C 7.894,38.213 7.008,37.572 6.18,36.868 L 29.181,36.868 C 28.354,37.572 27.495,38.213 26.544,38.758 L 8.851,38.758 Z" marker-start="none" marker-end="none"/>
       <path d="M 3.882,34.482 L 31.489,34.482 C 30.982,35.121 30.424,35.726 29.829,36.305 L 5.547,36.305 C 4.944,35.726 4.399,35.121 3.882,34.482 L 3.882,34.482 Z" marker-start="none" marker-end="none"/>
       <path d="M 8.824,21.48 L 0.113,21.48 C 0.155,21.05 0.226,20.608 0.289,20.178 L 8.188,20.178 C 8.42,20.6 8.629,21.043 8.824,21.48 L 8.824,21.48 Z" marker-start="none" marker-end="none"/>
       <path d="M 13.391,31.355 L 1.87,31.355 C 1.601,30.825 1.372,30.274 1.156,29.721 L 12.314,29.721 C 12.629,30.314 13.018,30.873 13.391,31.355 L 13.391,31.355 Z" marker-start="none" marker-end="none"/>
       <path d="M 28.744,17.8 L 34.464,17.8 C 34.584,18.195 34.7,18.609 34.807,19.026 L 27.832,19.026 C 28.128,18.588 28.43,18.188 28.744,17.8 L 28.744,17.8 Z" marker-start="none" marker-end="none"/>
       <path d="M 10.802,26.419 L 0.249,26.419 C 0.165,25.939 0.112,25.445 0.061,24.961 L 10.23,24.961 C 10.436,25.44 10.621,25.934 10.802,26.419 L 10.802,26.419 Z" marker-start="none" marker-end="none"/>
       <path d="M 9.831,23.958 L 0.015,23.958 C 0.006,23.774 0,23.609 0,23.432 C 0,23.133 0.016,22.867 0.029,22.568 L 9.296,22.568 C 9.498,23.026 9.669,23.503 9.831,23.958 L 9.831,23.958 Z" marker-start="none" marker-end="none"/>
       <path d="M 26.066,22.568 L 35.349,22.568 C 35.376,22.866 35.389,23.133 35.389,23.432 C 35.389,23.609 35.385,23.774 35.377,23.958 L 25.528,23.958 C 25.722,23.503 25.889,23.026 26.066,22.568 L 26.066,22.568 Z" marker-start="none" marker-end="none"/>
       <path d="M 27.187,20.179 L 35.09,20.179 C 35.161,20.608 35.212,21.051 35.282,21.482 L 26.561,21.482 C 26.762,21.043 26.972,20.6 27.187,20.179 L 27.187,20.179 Z" marker-start="none" marker-end="none"/>
       <path d="M 25.126,24.961 L 35.307,24.961 C 35.281,25.445 35.202,25.937 35.114,26.42 L 24.585,26.42 C 24.776,25.934 24.948,25.439 25.126,24.961 L 25.126,24.961 Z" marker-start="none" marker-end="none"/>
       <path d="M 7.531,19.026 L 0.561,19.026 C 0.665,18.609 0.783,18.195 0.907,17.8 L 6.639,17.8 C 6.959,18.188 7.242,18.588 7.531,19.026 L 7.531,19.026 Z" marker-start="none" marker-end="none"/>
       <path d="M 11.895,28.895 L 0.863,28.895 C 0.687,28.393 0.555,27.875 0.441,27.348 L 11.168,27.348 C 11.384,27.875 11.634,28.397 11.895,28.895 L 11.895,28.895 Z" marker-start="none" marker-end="none"/>
       <path d="M 1.393,16.55 C 1.537,16.2 1.708,15.838 1.894,15.489 L 1.938,15.489 C 3.278,15.489 4.388,15.899 5.324,16.55 L 1.393,16.55 Z" marker-start="none" marker-end="none"/>
       <path d="M 33.972,16.55 L 30.072,16.55 C 31.005,15.899 32.089,15.489 33.431,15.489 L 33.495,15.489 C 33.655,15.838 33.841,16.2 33.972,16.55 L 33.972,16.55 Z" marker-start="none" marker-end="none"/>
      </g>
     </g>
    </g>
   </g>
  </g>
 </g>
</svg>
